<?xml version="1.0" standalone="no"?>
<!DOCTYPE svg PUBLIC "-//W3C//DTD SVG 20010904//EN"
 "http://www.w3.org/TR/2001/REC-SVG-20010904/DTD/svg10.dtd">
<svg version="1.0" xmlns="http://www.w3.org/2000/svg"
 width="1000.000000pt" height="1335.000000pt" viewBox="0 0 1000.000000 1335.000000"
 preserveAspectRatio="xMidYMid meet">

<g transform="translate(0.000000,1335.000000) scale(0.100000,-0.100000)"
fill="#000000" stroke="none">
<path d="M4520 12289 c-178 -37 -373 -128 -535 -248 -246 -183 -357 -315 -419
-499 -53 -155 -114 -463 -125 -636 -7 -106 -9 -110 -39 -135 -17 -15 -36 -39
-41 -54 -19 -49 -11 -277 9 -277 18 0 30 59 30 143 0 101 19 159 55 166 31 5
35 19 35 119 0 112 16 265 35 329 7 27 27 95 44 153 31 108 109 308 133 338
129 167 348 339 573 449 109 53 151 67 253 88 125 25 222 32 222 16 0 -5 -3
-11 -7 -14 -5 -2 -1 -2 7 1 71 23 128 8 315 -84 285 -140 521 -357 634 -581
26 -51 41 -55 41 -10 0 147 -356 498 -655 647 -126 62 -302 110 -400 109 -38
0 -113 -9 -165 -20z"/>
<path d="M5825 10860 c3 -157 1 -316 -4 -355 -10 -75 -3 -107 17 -82 34 40 38
281 11 567 -21 212 -30 164 -24 -130z"/>
<path d="M3863 10650 c-50 -20 -8 -55 77 -64 30 -4 138 -11 239 -16 137 -8
210 -17 282 -35 114 -29 109 -29 109 -12 0 15 -80 70 -134 93 -28 11 -92 19
-210 24 -94 5 -209 11 -256 14 -47 3 -95 1 -107 -4z"/>
<path d="M5084 10597 c-46 -22 -94 -67 -94 -88 0 -14 39 -10 63 6 25 16 200
35 337 35 84 1 165 12 177 24 15 15 -16 21 -125 27 -64 4 -160 10 -212 13 -88
7 -99 5 -146 -17z"/>
<path d="M4090 10500 c-25 -4 -63 -15 -84 -24 -21 -9 -81 -25 -134 -36 -101
-20 -108 -23 -97 -39 8 -14 35 -14 35 -1 0 20 35 9 67 -22 24 -24 35 -29 45
-20 8 6 36 12 63 14 45 3 49 5 57 33 8 31 32 55 55 55 9 0 13 -14 13 -41 0
-33 6 -47 35 -76 30 -30 39 -34 67 -28 48 11 76 33 90 71 16 44 39 41 54 -6
15 -46 43 -60 94 -46 48 12 66 0 56 -37 -9 -36 -81 -63 -134 -50 -51 13 -135
-10 -130 -35 3 -13 13 -17 43 -15 95 4 156 13 184 28 17 8 34 15 39 15 5 0 13
-33 17 -72 7 -77 27 -138 44 -138 15 0 19 29 25 187 l5 142 -37 31 c-44 36
-50 37 -58 5 -3 -14 -10 -25 -16 -25 -23 0 -68 32 -68 49 0 27 -40 59 -90 70
-69 15 -190 21 -240 11z"/>
<path d="M5200 10483 c-61 -11 -149 -35 -190 -53 -25 -11 -64 -24 -87 -30 -31
-8 -43 -16 -43 -29 0 -25 17 -30 124 -41 50 -5 107 -14 126 -19 52 -16 142
-14 168 5 16 11 22 25 22 55 0 43 -5 47 -31 23 -15 -13 -22 -14 -65 -1 -45 13
-47 15 -27 25 29 16 122 15 149 -1 12 -6 46 -27 75 -44 53 -32 114 -51 126
-39 9 9 -26 82 -51 105 -41 39 -195 62 -296 44z"/>
<path d="M3446 10427 c-21 -32 -63 -156 -71 -211 -10 -66 10 -111 81 -187 35
-37 66 -80 70 -95 4 -15 8 -73 8 -129 1 -90 -1 -103 -21 -129 -64 -82 2 -356
164 -681 33 -66 68 -145 78 -175 23 -73 181 -369 264 -497 36 -55 86 -138 110
-183 59 -108 144 -209 201 -238 25 -12 63 -35 85 -51 61 -43 209 -121 231
-121 20 0 44 17 44 32 0 4 -18 12 -40 18 -48 13 -215 122 -236 155 -8 13 -26
26 -39 29 -57 15 -213 242 -231 338 -4 18 -12 40 -19 48 -7 8 -15 33 -18 54
-4 21 -15 48 -26 60 -11 12 -67 93 -126 181 -143 215 -235 407 -235 494 0 14
-5 33 -10 41 -9 13 -11 13 -20 0 -27 -43 -159 375 -137 434 13 33 41 13 52
-35 5 -25 22 -64 37 -85 15 -22 35 -60 43 -85 23 -68 145 -233 175 -238 14 -1
37 -12 51 -22 15 -10 34 -19 43 -19 20 0 21 24 0 41 -23 19 -41 59 -48 111 -8
56 -24 70 -44 40 -8 -12 -18 -22 -23 -22 -5 0 -20 23 -34 50 -14 28 -34 59
-45 70 -10 10 -26 34 -36 52 -9 18 -29 47 -44 63 -39 41 -66 130 -79 257 -15
147 -36 246 -79 363 -32 88 -36 111 -37 194 0 101 -11 122 -39 78z"/>
<path d="M3664 10196 c-12 -32 1 -270 16 -296 14 -24 15 -21 21 60 6 88 24
145 52 169 18 14 23 51 8 51 -6 0 -17 -10 -25 -21 -19 -27 -46 -18 -46 15 0
29 -18 44 -26 22z"/>
<path d="M4405 9981 c-50 -30 -212 -211 -245 -273 -17 -31 -51 -74 -76 -95
-25 -21 -61 -51 -80 -68 l-34 -30 30 -125 c30 -118 33 -163 15 -217 -5 -16 -2
-23 13 -27 30 -10 50 3 57 36 9 40 -4 236 -16 244 -17 10 -9 57 15 88 13 17
33 50 45 74 21 40 155 192 171 192 4 0 14 -18 23 -40 10 -26 25 -43 42 -50 41
-15 178 -13 201 4 28 21 14 28 -73 36 -63 6 -80 12 -96 31 -38 47 3 149 60
149 16 0 31 -12 49 -42 31 -49 62 -77 85 -78 15 0 15 6 3 56 -14 62 -51 117
-94 139 -38 20 -59 19 -95 -4z"/>
<path d="M5045 9913 c4 -10 15 -41 25 -69 10 -28 36 -85 59 -126 50 -90 93
-211 89 -247 -2 -20 -20 -36 -78 -72 -41 -25 -90 -60 -108 -77 -50 -47 -89
-55 -294 -59 -149 -4 -198 -1 -240 11 -72 21 -186 90 -282 170 -85 71 -103 73
-92 13 5 -25 25 -54 72 -100 88 -88 182 -150 279 -184 75 -26 90 -28 228 -26
176 2 222 14 341 86 137 84 171 101 190 94 13 -5 16 -13 12 -30 -4 -12 -11
-77 -16 -143 -5 -67 -12 -134 -16 -149 -5 -20 -4 -26 5 -21 21 13 50 82 57
137 9 69 37 146 81 220 43 73 41 94 -21 184 -25 36 -52 90 -60 119 -17 58 -73
138 -160 229 -54 57 -85 74 -71 40z"/>
<path d="M5737 9903 c-3 -5 -8 -42 -12 -83 -14 -143 -74 -333 -153 -484 -37
-71 -55 -78 -27 -10 8 20 13 39 10 42 -24 25 -129 -106 -141 -177 -10 -61 -21
-92 -68 -200 -52 -117 -98 -188 -104 -158 -2 10 1 31 7 47 8 24 6 34 -8 52
-15 18 -21 20 -34 10 -22 -19 -74 -132 -82 -178 -4 -29 -15 -47 -35 -63 -16
-11 -41 -42 -56 -68 -67 -120 -69 -121 -181 -173 -58 -28 -109 -47 -112 -44
-3 3 -6 18 -6 32 0 38 -33 36 -55 -3 -11 -20 -26 -31 -43 -33 -25 -3 -27 -1
-27 37 0 23 -4 41 -9 41 -5 0 -28 -9 -52 -20 -59 -27 -105 -25 -167 6 -59 29
-85 66 -127 179 -34 89 -41 96 -49 44 -16 -102 -52 -102 -42 0 4 37 4 75 0 85
-6 16 -8 15 -30 -5 -25 -23 -50 -20 -61 7 -4 10 6 52 21 94 36 101 34 167 -6
189 -21 12 -29 13 -41 2 -14 -11 -14 -14 4 -32 22 -22 24 -54 4 -89 -8 -14
-14 -39 -15 -57 0 -20 -9 -42 -25 -59 -14 -15 -25 -35 -25 -44 0 -39 99 -168
187 -244 100 -86 164 -123 275 -160 66 -22 94 -26 202 -26 148 0 211 11 290
53 98 52 259 216 418 425 30 40 62 85 69 100 8 15 40 71 71 124 69 117 165
307 202 400 51 130 88 448 52 448 -8 0 -17 -3 -19 -7z"/>
<path d="M4935 9731 c-40 -10 -86 -35 -148 -79 l-52 -37 -125 0 -125 0 -5 -30
c-4 -22 -15 -35 -42 -50 -48 -25 -69 -11 -43 28 30 47 -2 63 -51 25 -22 -18
-42 -23 -84 -23 -61 0 -76 -20 -30 -41 14 -6 45 -21 70 -34 25 -12 61 -31 81
-41 20 -10 75 -24 123 -31 85 -12 89 -11 132 11 36 20 52 22 96 17 116 -15
168 -18 193 -12 29 7 33 22 6 29 -12 3 -20 17 -24 45 -4 23 -14 42 -24 46 -9
4 -57 -10 -110 -30 -103 -41 -123 -39 -106 13 8 24 16 29 54 33 24 3 64 18 89
32 25 15 71 36 103 48 56 21 117 63 117 81 0 10 -51 10 -95 0z"/>
<path d="M4733 9371 c-93 -6 -110 -11 -98 -30 8 -14 153 -14 253 -1 82 11 101
18 81 31 -15 9 -86 9 -236 0z"/>
<path d="M3255 9293 c-44 -61 -78 -149 -72 -188 3 -16 11 -58 18 -92 12 -60
13 -62 31 -46 23 20 25 88 3 97 -21 8 -19 25 14 97 34 75 63 179 50 179 -5 0
-25 -21 -44 -47z"/>
<path d="M3073 9047 c-54 -57 -58 -72 -29 -127 30 -58 62 -175 76 -279 5 -42
21 -111 35 -154 14 -43 25 -85 25 -95 0 -57 130 -248 222 -327 80 -68 95 -30
20 49 -63 66 -94 120 -142 248 -86 229 -160 532 -160 658 0 27 -4 51 -8 54 -5
3 -23 -9 -39 -27z"/>
<path d="M4426 8911 c-24 -45 -20 -59 21 -76 20 -9 56 -31 79 -50 46 -38 74
-44 94 -19 20 23 73 14 85 -13 5 -13 13 -23 18 -23 4 0 38 16 74 35 36 19 71
35 78 35 14 0 58 46 75 79 11 21 10 26 -6 38 -10 7 -23 12 -29 9 -6 -2 -60 -9
-121 -16 -96 -11 -118 -10 -184 5 -41 10 -96 20 -122 22 -44 5 -48 3 -62 -26z"/>
<path d="M5296 8659 c-43 -99 -71 -255 -101 -583 -23 -247 -19 -316 20 -316
27 0 36 41 50 255 15 214 21 265 34 265 3 0 23 -33 43 -73 42 -81 125 -179
237 -280 74 -67 213 -167 232 -167 25 0 -6 37 -174 209 -207 211 -301 323
-318 381 -10 32 -9 68 6 190 13 112 15 154 7 162 -9 9 -18 -3 -36 -43z"/>
<path d="M2490 8611 c0 -9 10 -13 105 -46 28 -10 102 -40 165 -67 157 -68 222
-91 217 -75 -7 22 -101 87 -147 101 -25 8 -72 26 -105 40 -33 14 -74 26 -91
26 -17 0 -48 7 -67 15 -40 17 -77 20 -77 6z"/>
<path d="M2510 8480 c0 -18 59 -48 280 -141 118 -50 242 -106 275 -123 33 -18
74 -36 90 -40 l30 -8 -25 27 c-74 79 -216 150 -484 241 -179 61 -166 57 -166
44z"/>
<path d="M2085 8379 c-27 -5 -90 -19 -140 -30 -319 -72 -379 -91 -490 -156
-84 -49 -165 -113 -165 -130 0 -20 28 -10 129 48 47 27 93 49 103 49 10 0 30
7 43 16 63 41 391 114 610 135 159 15 442 7 513 -16 59 -18 73 -15 51 11 -35
42 -95 56 -283 65 -99 4 -212 10 -251 13 -38 2 -92 0 -120 -5z"/>
<path d="M3855 8251 c-121 -57 -345 -233 -345 -272 0 -25 35 -33 90 -20 81 19
188 13 261 -13 126 -46 234 -97 320 -151 90 -57 154 -85 195 -85 41 0 27 28
-27 55 -93 48 -207 185 -318 384 -55 99 -82 131 -108 131 -4 0 -35 -13 -68
-29z m28 -123 c19 -29 57 -78 85 -109 29 -31 52 -60 52 -63 0 -14 -34 -4 -99
29 -37 19 -100 42 -140 51 -39 9 -71 20 -71 25 0 7 128 119 137 119 1 0 18
-24 36 -52z"/>
<path d="M1454 8055 c-45 -32 -146 -99 -227 -150 -55 -36 -61 -58 -65 -290 -4
-224 5 -346 26 -353 9 -3 12 23 12 105 1 244 45 354 239 602 104 132 107 153
15 86z"/>
<path d="M2307 7816 c-21 -21 -47 -67 -69 -122 -20 -49 -52 -127 -71 -174 -50
-120 -86 -310 -58 -310 5 0 25 31 45 69 47 91 107 165 156 196 25 15 40 33 40
45 0 19 -1 18 -34 -4 -41 -28 -95 -51 -102 -44 -11 12 10 60 29 67 13 5 20 18
22 38 5 66 88 210 99 172 3 -14 46 -207 53 -244 3 -14 -26 -55 -93 -135 -53
-63 -104 -132 -115 -152 -33 -65 -19 -208 19 -184 13 8 32 94 32 146 0 35 4
43 39 64 40 25 121 113 121 132 0 5 14 31 30 57 17 26 30 61 30 77 0 33 -28
145 -66 263 -23 67 -29 77 -49 77 -14 0 -39 -14 -58 -34z"/>
<path d="M1830 7800 c-36 -16 -80 -32 -98 -36 -21 -4 -59 -30 -101 -68 -37
-33 -95 -85 -129 -114 -107 -92 -209 -242 -237 -348 -19 -71 -23 -299 -6 -360
11 -43 45 -94 62 -94 14 0 11 44 -6 76 -19 37 -19 69 0 180 19 108 84 251 182
397 69 103 122 156 243 245 140 103 193 153 163 152 -5 0 -37 -14 -73 -30z"/>
<path d="M1487 7790 c-65 -56 -167 -223 -167 -272 0 -5 52 55 115 134 63 79
115 149 115 156 0 21 -28 13 -63 -18z"/>
<path d="M3170 7755 c-36 -31 -97 -72 -137 -91 -75 -36 -179 -121 -172 -142 3
-9 11 -8 33 3 30 16 56 20 56 8 0 -3 -22 -29 -49 -58 -44 -47 -50 -58 -55
-111 -10 -93 -24 -132 -62 -170 l-36 -35 4 -109 c3 -96 6 -111 26 -132 12 -14
22 -35 22 -47 0 -36 97 -161 125 -161 6 0 34 -18 63 -39 28 -22 81 -49 116
-61 79 -26 110 -49 137 -101 39 -78 122 -100 195 -53 66 42 113 134 69 134 -8
0 -15 -8 -15 -19 0 -27 -18 -38 -84 -50 -95 -17 -90 -21 -120 79 -26 85 -27
92 -12 115 20 31 21 55 1 55 -9 0 -15 -9 -15 -25 0 -14 -6 -28 -14 -31 -8 -3
-19 -19 -25 -35 -6 -18 -17 -29 -29 -29 -26 0 -69 35 -89 73 -21 41 -36 53
-98 73 -93 31 -175 80 -175 104 0 4 29 10 64 12 71 4 106 25 106 63 0 29 -31
57 -38 36 -10 -30 -51 -61 -81 -61 -69 0 -79 24 -26 64 19 15 42 41 51 58 14
26 14 37 3 77 -14 51 -14 90 1 105 14 14 32 -6 75 -84 21 -38 42 -70 47 -70
19 0 6 59 -21 96 -47 65 -48 80 -6 106 l37 21 -23 13 c-29 16 -65 18 -74 4
-11 -18 -35 -11 -35 11 0 36 99 216 133 242 54 40 161 99 164 90 13 -36 41
-79 56 -81 27 -5 21 39 -12 88 -24 37 -27 47 -19 71 19 54 2 52 -62 -6z"/>
<path d="M3543 7744 c-4 -10 -8 -56 -8 -102 0 -80 1 -85 28 -104 15 -11 27
-25 27 -31 0 -6 21 -42 47 -80 25 -39 70 -127 98 -196 29 -69 66 -157 83 -195
l32 -68 57 7 c88 10 174 32 307 77 160 54 205 75 306 139 205 132 237 143 449
164 89 8 164 15 166 15 8 0 -5 -106 -21 -179 -8 -35 -26 -86 -41 -112 -30 -56
-29 -72 13 -249 33 -143 36 -275 12 -515 -38 -370 -66 -1064 -48 -1194 10 -77
40 -182 59 -205 4 -6 14 -27 20 -47 6 -20 21 -45 31 -54 26 -24 25 -19 -7 51
l-28 59 1 390 c1 399 14 720 39 995 8 85 19 304 25 485 5 182 13 390 16 463
l7 133 76 57 c104 79 120 131 40 132 -15 0 -38 9 -53 21 -15 11 -33 18 -41 15
-17 -6 -20 -32 -5 -41 6 -3 10 -15 10 -26 0 -30 -36 -23 -62 12 -24 32 -102
85 -141 94 -16 4 -35 -3 -66 -27 -89 -68 -105 -78 -126 -78 -47 0 -37 39 13
54 24 8 31 36 7 36 -8 0 -49 -32 -92 -70 -52 -48 -90 -74 -117 -81 -23 -6 -66
-20 -96 -31 -83 -31 -130 -33 -185 -9 -39 17 -68 21 -162 21 -113 0 -115 0
-144 29 -34 35 -30 55 14 70 33 12 67 39 67 53 0 4 -37 5 -82 2 l-83 -6 -90
61 c-49 33 -93 61 -97 61 -13 0 -9 -39 6 -68 22 -43 51 -64 118 -82 l62 -17 0
-111 c1 -62 1 -112 1 -112 0 0 18 7 40 15 64 23 277 20 350 -5 36 -13 85 -20
129 -20 88 0 109 -11 72 -35 -46 -31 -140 -65 -178 -65 -27 0 -38 -4 -38 -15
0 -8 8 -15 18 -16 12 0 13 -2 3 -6 -7 -3 -45 2 -85 10 -81 18 -219 37 -256 37
-56 -1 12 -28 123 -49 61 -12 116 -26 121 -31 19 -19 -255 -112 -337 -114 -62
-1 -74 12 -132 160 -33 82 -41 112 -32 122 16 20 63 42 91 42 13 0 26 6 29 13
4 10 -7 42 -19 56 -2 2 -20 -10 -41 -26 -40 -31 -85 -53 -107 -53 -17 0 -36
51 -36 97 0 29 -9 43 -49 81 -73 69 -73 97 1 107 48 7 98 39 98 63 0 17 -55
34 -127 39 -65 5 -73 4 -80 -13z m1550 -169 c17 -19 36 -35 43 -35 20 0 45
-59 34 -80 -17 -32 -72 -43 -118 -25 -35 14 -92 75 -92 98 0 3 23 7 52 9 56 3
76 23 34 34 -14 3 -26 12 -26 20 0 26 42 14 73 -21z m-154 -109 c38 -39 18
-50 -102 -58 -56 -4 -131 -10 -166 -14 -51 -5 -63 -4 -59 7 2 7 32 18 65 24
38 7 79 23 109 44 59 39 112 38 153 -3z"/>
<path d="M2134 7670 c-59 -22 -214 -198 -214 -242 0 -22 25 -24 34 -3 3 8 14
15 25 15 30 0 77 45 112 108 18 31 41 69 52 84 24 32 20 48 -9 38z"/>
<path d="M5673 7588 c-85 -72 -223 -238 -223 -267 0 -25 58 20 151 116 92 95
159 177 159 195 0 20 -30 5 -87 -44z"/>
<path d="M3120 7604 c0 -3 13 -24 29 -47 52 -76 69 -122 109 -284 22 -88 55
-195 75 -239 149 -334 160 -355 210 -381 40 -20 46 -28 109 -143 75 -139 133
-226 163 -246 54 -35 168 -3 205 58 25 41 25 52 3 43 -47 -20 -68 -17 -90 17
-30 44 -71 88 -83 88 -24 0 -6 -42 36 -89 39 -44 43 -51 25 -51 -25 0 -96 62
-117 101 -8 16 -14 39 -14 52 0 14 -6 27 -13 30 -7 2 -36 43 -65 90 -56 93
-82 117 -123 117 -31 0 -41 10 -63 70 -19 51 -22 87 -11 145 l6 40 -24 -29
c-28 -32 -47 -28 -47 12 0 15 -23 72 -50 127 -37 73 -57 130 -75 213 -30 136
-71 227 -125 276 -35 32 -70 47 -70 30z"/>
<path d="M1826 7568 c-8 -13 -17 -41 -21 -63 -4 -22 -18 -74 -32 -116 -26 -80
-28 -124 -3 -124 8 0 18 15 24 33 5 17 15 32 22 32 9 0 14 -28 18 -97 10 -155
10 -203 1 -278 -6 -56 -4 -78 9 -109 24 -57 38 -35 47 71 4 49 10 117 14 153
6 51 1 97 -20 210 -26 141 -28 205 -9 283 5 23 3 27 -15 27 -11 0 -27 -10 -35
-22z"/>
<path d="M2628 7483 c-81 -88 -145 -220 -119 -246 12 -12 36 3 109 68 55 49
65 66 33 58 -32 -8 -31 10 6 69 34 54 36 78 9 78 -7 0 -24 -12 -38 -27z"/>
<path d="M1654 7435 c-89 -92 -167 -206 -215 -315 -70 -158 -63 -201 11 -67
41 75 44 79 148 218 75 99 136 204 129 221 -3 8 -32 -15 -73 -57z"/>
<path d="M5967 7433 c-13 -12 -7 -58 12 -89 35 -57 117 -104 182 -104 43 0 86
-43 103 -105 15 -48 21 -57 69 -84 75 -43 102 -73 88 -100 -13 -24 -26 -26
-60 -7 -15 8 -40 12 -63 8 -40 -5 -52 9 -22 26 10 6 14 14 9 22 -11 18 -110
59 -195 81 -90 24 -294 37 -304 21 -11 -18 21 -28 164 -52 74 -12 146 -27 160
-32 125 -47 -396 -7 -536 41 -63 22 -124 76 -124 109 0 10 11 29 25 42 45 43
28 65 -26 33 -55 -32 -70 -113 -34 -183 36 -70 220 -120 443 -120 189 0 335
-31 496 -104 83 -38 112 -69 166 -176 21 -42 58 -105 82 -141 24 -35 47 -72
51 -83 4 -11 -5 -53 -22 -105 -32 -93 -96 -331 -110 -408 -15 -79 15 -113 84
-95 39 11 42 27 5 42 -37 15 -38 32 -3 59 25 21 59 32 249 85 50 13 116 36
147 50 73 32 73 42 7 190 -27 62 -50 118 -50 124 0 7 -7 12 -15 12 -16 0 -21
-25 -6 -34 5 -3 23 -45 40 -94 18 -48 41 -99 51 -114 l20 -27 -27 -18 c-23
-15 -51 -18 -181 -18 -150 -1 -154 -1 -172 -24 -21 -29 -40 -20 -40 17 0 88
119 365 164 382 30 11 62 51 76 96 14 40 1 91 -30 119 -30 27 -24 38 16 32 45
-8 64 -23 64 -53 0 -17 8 -28 26 -34 35 -14 115 -12 140 3 75 43 86 48 107 41
12 -4 62 -46 112 -94 130 -126 129 -125 315 -124 94 1 194 8 255 18 112 19
295 64 309 77 15 14 -12 242 -39 326 -28 86 -83 195 -102 201 -17 5 -16 -26 2
-118 8 -41 18 -143 22 -226 l6 -150 -46 -18 c-100 -38 -157 -30 -157 22 0 15
-11 45 -25 67 -14 22 -34 60 -46 85 -23 46 -22 51 8 143 10 32 -24 18 -67 -29
-37 -40 -41 -50 -35 -77 3 -18 10 -57 15 -87 6 -34 16 -59 27 -65 9 -5 38 -29
63 -52 64 -59 51 -68 -93 -67 -112 0 -197 14 -249 41 -40 19 -35 30 18 36 25
2 55 13 67 25 12 10 35 26 51 33 16 8 32 20 34 28 9 26 -96 5 -172 -34 -57
-30 -71 -34 -85 -23 -9 7 -38 31 -66 54 -27 23 -69 51 -92 63 -42 21 -43 22
-43 73 l0 52 38 -36 c20 -20 47 -41 60 -47 12 -7 22 -21 22 -31 0 -25 7 -25
48 0 38 23 55 25 82 8 42 -27 85 39 120 180 12 46 33 108 48 138 21 42 24 58
16 72 -34 53 -87 -21 -125 -172 -17 -67 -28 -92 -46 -103 -36 -24 -148 -27
-208 -6 -47 17 -50 21 -53 55 -2 20 13 107 32 194 41 178 41 184 22 184 -35 0
-96 -202 -116 -381 -14 -125 -18 -147 -37 -177 -11 -18 -17 -21 -28 -12 -8 6
-56 18 -107 26 -51 8 -104 22 -117 31 -21 14 -23 20 -17 67 3 28 17 89 30 136
37 130 40 150 23 150 -27 0 -69 -122 -101 -293 -17 -90 -28 -107 -65 -107 -29
0 -134 49 -167 77 -50 45 -56 64 -44 159 6 49 20 135 30 192 11 57 20 123 20
148 0 42 -1 44 -30 44 -38 0 -121 -31 -156 -59 -36 -28 -49 -27 -116 13 -31
19 -84 42 -118 52 -49 14 -68 25 -92 56 -30 37 -47 45 -61 31z m523 -163 c24
-24 25 -47 4 -100 -23 -58 -47 -52 -98 25 -29 44 -32 65 -14 83 20 20 85 15
108 -8z m295 -642 c39 -73 -11 -121 -86 -83 -29 15 -31 20 -25 53 6 42 39 74
70 70 12 -2 29 -19 41 -40z"/>
<path d="M3544 7375 c-7 -19 -14 -41 -14 -49 0 -21 -32 -36 -79 -36 -70 0 -90
-22 -55 -61 9 -10 20 -40 25 -66 10 -57 28 -93 44 -93 29 0 125 127 125 165 0
29 -18 15 -40 -30 -21 -44 -74 -95 -98 -95 -33 0 7 91 73 169 57 67 68 87 60
111 -9 30 -24 24 -41 -15z"/>
<path d="M2423 7255 c-26 -51 -69 -183 -83 -259 -14 -68 -8 -111 19 -141 26
-27 41 -108 41 -213 0 -104 -8 -121 -44 -104 -30 14 -32 27 -14 148 10 68 9
88 -2 111 -13 27 -14 22 -31 -92 -21 -146 -23 -197 -7 -213 8 -8 45 -12 103
-12 87 0 179 -19 248 -50 15 -7 30 -10 35 -6 13 14 -55 63 -127 91 -39 15 -77
33 -85 40 -9 9 -15 60 -20 159 -4 81 -14 168 -22 195 -40 137 -38 201 11 259
28 33 30 53 11 97 l-13 30 -20 -40z"/>
<path d="M4551 7152 c-8 -14 -6 -36 4 -77 45 -172 195 -438 195 -346 0 30 17
34 90 22 35 -6 67 -8 73 -4 15 9 -37 33 -90 40 -102 13 -121 38 -188 248 -42
133 -61 159 -84 117z"/>
<path d="M2481 7116 c-22 -26 -7 -98 56 -272 71 -193 107 -259 191 -341 34
-33 62 -65 62 -71 0 -35 276 -93 295 -62 8 14 -27 26 -141 49 -116 23 -131 33
-80 57 35 17 38 17 68 0 41 -25 170 -26 216 -2 18 9 30 21 27 26 -4 6 -64 10
-137 10 -120 0 -130 1 -123 18 19 47 22 71 11 93 -18 37 -43 29 -68 -21 -28
-55 -51 -61 -89 -24 -63 60 -179 255 -179 300 0 9 -11 39 -25 67 -13 29 -29
75 -35 103 -6 29 -17 59 -24 69 -11 15 -13 15 -25 1z"/>
<path d="M1544 7095 c-30 -45 -74 -188 -74 -240 0 -27 -7 -63 -15 -79 -20 -38
-18 -122 4 -171 l18 -40 7 90 c8 102 59 338 86 398 27 60 7 92 -26 42z"/>
<path d="M4682 7058 c3 -29 10 -36 64 -63 34 -16 76 -42 94 -57 34 -30 45 -34
55 -18 10 16 -34 99 -60 116 -18 12 -137 54 -153 54 -2 0 -2 -15 0 -32z"/>
<path d="M1674 6934 c18 -98 98 -430 121 -500 15 -47 39 -97 60 -123 19 -24
35 -50 35 -57 0 -23 57 -25 158 -4 125 25 144 25 167 0 25 -27 13 -36 -70 -56
-89 -20 -118 -32 -110 -44 10 -17 57 -11 110 14 27 13 67 31 88 40 56 24 58
43 7 88 -23 21 -52 38 -62 38 -11 0 -36 13 -54 30 -41 35 -111 73 -127 67 -6
-2 15 -28 47 -59 l58 -56 -33 -10 c-62 -19 -117 -24 -139 -12 l-22 12 27 28
c27 28 27 30 11 55 -14 22 -22 25 -46 20 -27 -6 -31 -3 -49 37 -29 65 -93 269
-87 276 10 9 96 -90 122 -140 22 -44 26 -47 45 -35 17 10 22 9 30 -6 6 -9 24
-24 42 -34 18 -9 52 -31 76 -50 44 -33 61 -40 61 -24 0 4 -82 93 -182 198
-141 145 -192 206 -224 263 -47 86 -70 103 -60 44z"/>
<path d="M1974 6934 c-10 -56 1 -196 19 -229 22 -42 103 -131 112 -123 3 3 -8
38 -25 78 -17 39 -38 110 -46 157 -14 82 -37 153 -48 153 -3 0 -8 -16 -12 -36z"/>
<path d="M1596 6874 c-15 -40 -28 -215 -24 -345 3 -139 5 -146 36 -206 27 -53
37 -63 69 -72 21 -6 53 -11 72 -11 l34 0 -48 51 c-27 28 -44 56 -41 64 3 8 -3
17 -15 20 -47 15 -74 138 -45 203 16 36 16 44 2 121 -9 46 -16 105 -16 132 0
48 -13 72 -24 43z"/>
<path d="M8156 6470 c-59 -38 -326 -89 -473 -91 -43 -1 -89 -4 -103 -9 -26 -8
-25 -9 28 -26 9 -3 85 -5 167 -5 137 1 182 7 304 38 34 8 41 -10 41 -108 l0
-87 -86 -12 c-85 -12 -191 -8 -254 10 -17 5 -54 30 -82 55 -62 56 -104 80
-113 64 -7 -11 5 -27 80 -107 69 -75 77 -77 276 -77 197 -1 224 -8 236 -66 4
-21 18 -38 44 -55 22 -13 39 -29 39 -34 0 -16 -46 -30 -129 -40 -100 -13 -131
-20 -131 -30 0 -15 100 -29 279 -40 96 -6 182 -15 192 -20 9 -5 27 -26 39 -45
12 -19 31 -37 43 -39 69 -14 84 -19 105 -32 36 -23 28 -42 -20 -46 -55 -4 -59
-22 -9 -47 43 -23 55 -38 66 -88 l7 -33 -49 0 c-74 0 -124 11 -131 29 -9 25
-23 31 -84 31 -45 0 -63 5 -79 21 -33 33 -21 54 34 57 26 2 47 8 47 14 0 6
-16 8 -42 4 -24 -4 -102 -9 -173 -12 -106 -5 -137 -3 -168 10 -21 8 -35 11
-32 6 15 -24 99 -62 166 -75 138 -26 160 -32 180 -51 20 -18 78 -36 256 -78
55 -14 116 -32 134 -41 56 -30 128 -105 212 -224 98 -139 162 -211 190 -211
19 0 18 3 -10 33 -29 29 -51 64 -176 267 -22 36 -69 97 -105 135 -73 79 -94
120 -112 220 -12 62 -18 75 -64 123 -70 74 -126 114 -257 179 -122 61 -182
112 -218 186 -28 58 -44 184 -36 285 4 45 5 82 3 81 -1 0 -16 -9 -32 -19z"/>
<path d="M2700 6200 c-122 -10 -457 -77 -507 -101 -23 -11 -67 -47 -98 -80
-85 -92 -70 -121 26 -49 79 59 91 52 36 -21 -49 -64 -61 -89 -49 -101 14 -14
62 61 92 142 19 51 28 62 64 80 26 12 62 20 94 20 47 0 52 -2 52 -22 0 -24
-93 -297 -129 -380 -11 -27 -40 -78 -64 -115 -24 -38 -56 -90 -71 -118 -16
-27 -46 -73 -67 -101 -22 -28 -39 -58 -39 -67 0 -26 28 -20 47 11 9 15 33 45
53 68 46 54 152 240 196 345 56 134 141 306 174 354 40 58 57 66 159 76 82 9
153 33 155 54 1 13 -21 14 -124 5z"/>
<path d="M7470 6151 c-52 -20 -161 -68 -243 -105 -81 -37 -166 -74 -189 -82
-56 -20 -82 -43 -67 -61 17 -19 81 -16 141 8 29 12 71 27 93 34 22 7 86 34
143 59 207 91 278 140 252 171 -17 21 -22 20 -130 -24z"/>
<path d="M4833 6123 c-18 -9 -33 -22 -33 -29 0 -12 71 -41 168 -68 60 -17 70
-10 53 37 -7 18 -22 30 -51 38 -22 7 -45 18 -51 26 -15 17 -46 16 -86 -4z"/>
<path d="M2300 5993 c-25 -71 -188 -317 -329 -498 -113 -146 -158 -222 -147
-250 6 -16 12 -13 52 26 53 51 220 248 285 335 116 156 187 312 174 382 -7 39
-22 41 -35 5z"/>
<path d="M8855 5977 c-11 -44 70 -211 129 -266 l26 -24 0 25 c0 51 -107 271
-137 282 -7 3 -15 -4 -18 -17z"/>
<path d="M4580 5985 c0 -15 167 -336 195 -375 19 -25 37 -58 40 -72 4 -15 14
-33 23 -40 27 -22 7 46 -33 110 -19 32 -41 80 -50 108 -19 64 -175 304 -175
269z"/>
<path d="M7765 5970 c-3 -10 1 -32 9 -49 25 -48 114 -149 145 -166 60 -31 349
-46 391 -20 22 14 -12 25 -79 25 -155 0 -359 94 -421 194 -25 41 -36 45 -45
16z"/>
<path d="M9100 5918 c1 -37 36 -189 64 -272 18 -51 26 -98 26 -144 0 -65 35
-191 60 -216 15 -15 13 136 -5 235 -18 105 -68 274 -105 357 -31 66 -40 76
-40 40z"/>
<path d="M2543 5832 c-17 -24 -35 -56 -38 -73 -4 -19 -21 -39 -50 -59 -49 -34
-75 -87 -75 -156 0 -73 -31 -112 -45 -56 l-7 27 -26 -32 c-15 -18 -40 -58 -57
-90 -16 -32 -33 -59 -36 -61 -42 -19 -42 -15 -9 -252 50 -369 55 -394 71 -385
14 9 11 146 -6 270 -8 61 -20 153 -26 205 l-11 95 35 58 c53 87 58 92 73 72
10 -14 15 -12 43 22 36 44 121 206 145 276 9 26 25 66 37 88 11 22 19 53 17
67 -3 27 -3 26 -35 -16z"/>
<path d="M6845 5829 c-36 -32 -36 -32 -115 -25 -49 4 -80 3 -80 -3 0 -16 51
-46 120 -71 36 -13 117 -49 180 -81 63 -32 205 -101 315 -153 110 -53 205
-101 212 -108 159 -167 236 -253 265 -299 78 -122 252 -279 309 -279 40 0 37
21 -11 74 -25 26 -40 53 -40 68 0 14 -9 46 -21 72 -50 114 -37 436 18 436 7 0
13 -11 13 -26 0 -14 7 -40 15 -57 9 -22 15 -76 17 -168 2 -96 7 -141 17 -152
21 -26 30 -11 19 33 -11 42 -4 90 13 90 16 0 39 -65 39 -112 0 -58 15 -106 41
-134 l22 -23 -25 -33 c-30 -40 -38 -62 -30 -74 12 -18 76 -52 157 -85 78 -32
84 -33 305 -42 292 -13 317 -12 381 13 30 12 110 35 179 51 183 43 246 66 282
102 62 63 100 197 57 205 -12 2 -18 -8 -23 -39 -6 -35 -17 -52 -64 -96 -36
-34 -71 -57 -97 -63 -22 -6 -116 -36 -210 -66 -163 -54 -173 -56 -250 -51
-118 8 -395 109 -508 186 -23 15 -50 30 -59 34 -19 7 -76 114 -131 247 -19 47
-62 142 -96 212 -34 70 -61 136 -61 147 0 63 -54 -1 -89 -106 -29 -86 -42
-219 -31 -307 11 -87 20 -113 55 -154 15 -18 25 -35 22 -39 -12 -11 -37 7 -64
47 -16 23 -50 69 -76 103 -48 61 -87 127 -87 146 0 6 13 31 29 56 16 25 43 91
61 146 18 56 43 126 56 156 24 54 31 103 16 103 -11 0 -83 -52 -99 -72 -11
-12 -9 -18 7 -33 19 -17 28 -55 13 -55 -3 0 -15 7 -25 17 -10 9 -21 13 -25 9
-4 -4 -8 -46 -8 -94 -1 -131 -44 -202 -112 -183 -49 14 -93 41 -93 56 0 21 29
19 68 -5 18 -11 35 -20 37 -20 13 0 3 69 -12 82 -17 15 -169 68 -238 84 -72
16 -185 86 -185 114 0 19 -62 80 -82 80 -6 0 -26 11 -44 25 -31 24 -54 32 -54
19 0 -3 18 -32 41 -64 63 -90 43 -96 -39 -13 -51 51 -73 82 -77 106 -7 34 -55
97 -74 97 -6 0 -26 -14 -46 -31z m1531 -991 c97 -88 104 -98 68 -98 -37 0
-101 32 -152 76 -32 27 -42 43 -42 65 0 50 37 38 126 -43z"/>
<path d="M6407 5823 c-8 -13 -47 -221 -47 -251 0 -32 -21 -75 -35 -74 -5 1
-12 16 -15 33 -3 18 -11 34 -19 37 -10 3 -11 -4 -5 -39 11 -56 11 -254 1 -383
-7 -87 -7 -98 6 -87 16 13 41 105 57 216 6 39 29 162 51 275 22 113 39 220 37
239 -3 33 -20 52 -31 34z"/>
<path d="M7334 5602 c15 -24 149 -44 252 -37 106 7 137 16 113 31 -20 13 -373
19 -365 6z"/>
<path d="M8070 5542 c0 -5 13 -27 29 -48 74 -101 150 -139 242 -120 26 6 58 1
120 -18 46 -14 153 -43 237 -65 147 -38 153 -39 139 -18 -27 41 -117 76 -317
122 -254 58 -313 77 -384 120 -64 38 -66 39 -66 27z"/>
<path d="M5788 5364 c-9 -10 -45 -19 -91 -24 -111 -13 -187 -46 -212 -92 -11
-21 -30 -40 -43 -43 -33 -8 -105 -76 -93 -88 12 -12 106 31 151 70 43 37 99
66 168 87 62 18 107 44 141 80 17 19 20 26 10 26 -8 0 -22 -7 -31 -16z"/>
<path d="M8305 5080 c77 -78 179 -142 306 -193 143 -57 210 -74 319 -82 142
-10 145 22 4 44 -39 6 -95 21 -125 34 -30 13 -128 48 -218 77 -135 43 -172 59
-215 94 -111 91 -147 103 -71 26z"/>
<path d="M6241 4974 c-21 -27 -26 -46 -36 -147 -3 -32 -12 -72 -20 -87 -8 -16
-19 -58 -24 -93 -12 -87 -77 -207 -111 -207 -5 0 -25 -33 -44 -72 -19 -40 -53
-101 -74 -136 -22 -34 -42 -77 -45 -95 -3 -17 -11 -55 -18 -82 -7 -31 -9 -66
-4 -90 l8 -40 20 50 c41 98 159 329 203 397 87 135 121 223 153 403 39 218 38
257 -8 199z"/>
<path d="M5255 4628 c11 -33 79 -174 115 -235 63 -109 67 -34 5 96 -41 85 -76
135 -106 152 -19 10 -20 9 -14 -13z"/>
<path d="M3820 4518 c0 -12 14 -37 31 -54 21 -22 34 -48 40 -81 13 -66 52
-141 116 -219 30 -36 61 -81 69 -101 22 -52 106 -135 179 -178 79 -46 162
-119 208 -183 19 -26 69 -112 111 -191 42 -78 99 -171 127 -204 28 -34 55 -70
60 -82 5 -11 28 -47 52 -80 31 -42 51 -61 69 -63 50 -6 44 32 -17 117 -15 20
-25 48 -25 67 0 45 -15 80 -37 87 -10 4 -27 12 -38 18 -11 7 -27 15 -35 19 -8
4 -49 72 -90 151 -41 79 -90 165 -107 190 -44 63 -141 151 -238 214 -92 61
-106 75 -210 210 -87 113 -119 170 -139 249 -19 73 -31 94 -69 116 -42 26 -57
25 -57 -2z"/>
<path d="M2946 4490 c-151 -35 -387 -113 -524 -174 -53 -24 -116 -49 -139 -56
-23 -7 -57 -28 -75 -47 l-33 -34 -6 -147 c-4 -81 -12 -178 -18 -217 -12 -76
-15 -244 -5 -269 3 -9 11 -16 16 -16 7 0 9 19 5 51 -4 30 0 82 9 127 8 43 19
101 24 131 7 41 18 64 44 90 35 37 55 81 37 81 -6 0 -13 -11 -17 -25 -9 -35
-28 -49 -44 -30 -18 22 -7 122 19 174 16 30 33 47 59 58 20 8 96 41 168 73
124 56 249 97 518 171 120 33 165 56 152 77 -10 17 -46 14 -190 -18z"/>
<path d="M5230 4432 c0 -18 61 -187 75 -209 12 -17 23 -22 48 -21 31 3 32 1
35 -37 4 -42 -28 -195 -58 -279 -39 -110 -92 -223 -163 -349 -84 -151 -107
-204 -107 -250 0 -17 -7 -72 -17 -120 l-17 -89 29 -116 c15 -64 50 -184 77
-267 27 -82 53 -181 58 -219 11 -74 54 -254 71 -298 8 -19 34 -40 83 -67 97
-53 156 -111 156 -153 1 -29 -12 -45 -107 -135 -59 -56 -105 -104 -101 -108
12 -13 87 16 148 57 81 54 120 113 120 182 0 67 -24 106 -128 201 -103 96
-136 160 -192 376 -55 211 -86 309 -126 407 -47 113 -56 217 -26 276 12 22 24
57 27 77 3 19 30 78 60 130 120 205 223 430 256 559 23 88 30 233 12 251 -7 7
-29 15 -50 18 -33 6 -42 13 -70 61 -60 105 -77 130 -85 130 -4 0 -8 -4 -8 -8z"/>
<path d="M2043 4158 c-6 -7 -23 -42 -38 -78 -15 -36 -49 -108 -75 -160 -27
-53 -53 -116 -60 -140 -7 -25 -40 -90 -75 -145 -34 -55 -71 -122 -81 -150 -10
-27 -28 -60 -40 -71 -20 -19 -84 -198 -84 -235 0 -80 416 661 474 843 27 86
13 178 -21 136z"/>
<path d="M5762 3977 c-22 -26 -26 -127 -7 -177 9 -25 20 -61 24 -80 5 -19 34
-109 64 -200 62 -181 66 -207 48 -295 -7 -33 -17 -82 -23 -110 -12 -58 -55
-155 -69 -155 -5 0 -12 -8 -16 -17 -3 -10 -25 -61 -49 -113 -45 -98 -53 -136
-89 -404 -18 -134 -35 -186 -62 -186 -50 0 -95 22 -115 56 -19 32 -22 34 -36
20 -14 -13 -14 -19 -2 -42 17 -32 164 -144 189 -144 31 0 51 33 51 84 0 26 18
154 40 284 l40 237 85 170 c71 141 90 189 110 280 14 61 25 121 25 134 0 13
-27 105 -59 205 -32 99 -62 201 -66 226 -4 25 -16 62 -26 82 -11 21 -22 59
-26 85 -8 64 -16 79 -31 60z"/>
<path d="M2440 3746 c0 -31 275 -355 367 -433 31 -26 93 -82 137 -124 86 -82
136 -112 211 -129 35 -8 59 -22 93 -58 26 -26 62 -52 80 -59 l33 -12 -27 37
c-57 77 -112 138 -135 149 -13 6 -45 21 -70 32 -42 19 -72 43 -201 155 -28 25
-38 41 -38 63 0 37 -34 83 -61 83 -49 0 -98 37 -229 170 -76 77 -143 140 -149
140 -6 0 -11 -6 -11 -14z"/>
<path d="M4920 3667 c0 -19 58 -105 83 -122 35 -25 47 -19 47 23 0 34 4 40 38
57 l37 18 -70 18 c-87 22 -135 24 -135 6z"/>
<path d="M2043 2785 c2 -5 34 -27 71 -49 l67 -38 75 11 c95 14 335 14 462 0
175 -19 434 -75 651 -141 111 -34 137 -39 153 -29 25 15 44 11 243 -50 184
-56 245 -69 326 -69 54 0 81 11 60 24 -16 10 -507 157 -616 185 -44 11 -204
47 -355 81 -248 55 -292 62 -445 70 -267 14 -696 17 -692 5z"/>
<path d="M1959 2693 c-15 -38 5 -164 33 -214 12 -22 25 -39 29 -39 3 0 34 -24
67 -54 42 -38 85 -64 143 -87 159 -64 163 -68 171 -123 10 -72 26 -103 63
-120 76 -36 84 -14 20 55 -45 48 -45 49 -39 102 l6 53 -78 51 c-44 29 -107 77
-141 107 -56 49 -67 54 -96 49 -32 -5 -36 -2 -70 50 -42 62 -56 95 -65 151 -9
48 -28 57 -43 19z"/>
<path d="M4600 2705 c-20 -24 -5 -42 69 -80 39 -19 103 -54 144 -79 119 -70
300 -122 337 -96 13 9 9 16 -22 45 -23 21 -48 35 -63 35 -14 0 -92 34 -173 76
-137 71 -239 114 -267 114 -7 0 -18 -7 -25 -15z"/>
<path d="M1426 2198 c-3 -13 -6 -48 -6 -78 0 -30 -7 -111 -15 -179 -13 -110
-13 -131 1 -198 18 -89 13 -109 -47 -185 -46 -58 -94 -152 -84 -167 3 -6 -4
-45 -15 -87 -17 -68 -19 -86 -9 -142 10 -54 8 -87 -6 -192 -10 -70 -15 -135
-12 -144 12 -31 39 -13 53 35 26 88 136 158 344 220 99 29 138 35 357 58 59 6
106 18 135 32 54 28 166 30 249 6 73 -22 253 -34 263 -18 9 13 -28 29 -101 42
-29 6 -73 19 -97 30 -25 11 -95 26 -157 33 -111 14 -129 22 -129 58 0 9 -4 19
-9 23 -13 7 -31 -27 -31 -59 0 -28 -45 -86 -67 -86 -9 0 -13 6 -9 15 3 8 9 22
12 31 5 12 1 15 -17 12 -16 -2 -30 -15 -42 -40 -29 -60 -56 -47 -71 34 -11 61
-24 68 -100 52 -54 -11 -371 -44 -429 -44 -18 0 -31 -23 -41 -72 -8 -37 -33
-36 -41 2 -9 42 2 84 30 110 19 18 42 24 111 31 48 5 90 11 92 14 14 13 -18
20 -104 23 -90 4 -94 5 -94 27 0 12 8 33 19 46 17 21 22 22 45 11 30 -13 66
-16 66 -5 0 4 -12 17 -27 29 -25 20 -26 24 -15 48 7 15 24 43 40 62 l27 34 5
-65 c3 -36 10 -66 15 -68 6 -1 22 22 38 52 20 40 27 70 27 110 0 63 26 266 35
281 20 32 224 -6 293 -53 20 -15 71 -37 112 -51 41 -13 100 -37 131 -54 69
-36 239 -74 519 -116 48 -7 314 -31 615 -56 554 -44 631 -51 659 -56 28 -6 29
-7 23 -63 -6 -57 -21 -116 -35 -138 -8 -12 -10 -12 -302 17 -52 5 -142 21
-200 35 -58 15 -204 42 -325 61 -121 19 -261 45 -311 59 -51 14 -110 25 -132
25 -22 0 -55 7 -75 15 -90 37 -296 60 -396 44 -58 -10 -72 -9 -100 5 -17 9
-62 19 -99 23 -60 5 -66 4 -52 -10 8 -9 40 -24 70 -35 30 -11 80 -29 110 -40
35 -12 96 -22 165 -27 61 -4 118 -12 128 -17 11 -5 65 -14 120 -19 56 -6 163
-18 237 -29 74 -10 191 -26 260 -35 157 -21 365 -60 450 -85 36 -10 105 -27
153 -36 98 -19 102 -23 113 -102 7 -52 6 -52 -21 -52 -15 0 -42 8 -59 19 -17
10 -52 22 -78 25 -26 4 -50 11 -53 15 -2 5 -26 14 -52 20 -27 7 -79 21 -118
32 -38 10 -151 33 -250 50 -99 17 -254 43 -345 59 -212 36 -320 46 -320 31 0
-7 16 -19 35 -27 46 -19 528 -118 673 -138 62 -9 138 -25 169 -36 32 -11 74
-20 95 -20 21 0 55 -7 76 -16 60 -25 113 -42 186 -59 84 -20 106 -33 135 -85
31 -56 23 -86 -33 -110 -61 -27 -220 -53 -291 -47 -163 13 -356 38 -410 53
-132 36 -140 39 -152 64 -15 30 -34 35 -177 51 -98 11 -115 10 -142 -4 -28
-14 -32 -14 -47 0 -20 20 -102 20 -182 -1 -80 -22 -268 -22 -289 -1 -21 22
-53 19 -101 -10 -44 -25 -55 -24 -55 7 0 15 -3 17 -19 8 -13 -6 -21 -23 -23
-47 -3 -35 -5 -37 -56 -50 -46 -12 -56 -11 -83 3 -30 15 -32 15 -47 -8 -9 -13
-30 -39 -47 -58 -98 -111 -102 -148 -9 -69 60 50 115 79 149 79 24 0 25 -3 25
-55 0 -52 -2 -55 -34 -70 -39 -19 -93 -72 -82 -82 4 -4 15 -2 24 5 29 21 98
52 132 59 l32 6 -5 -109 c-3 -60 -9 -124 -13 -141 -4 -22 -2 -33 5 -33 18 0
31 45 42 152 14 137 18 145 75 154 26 4 131 4 233 0 440 -16 673 -40 927 -96
239 -53 298 -60 624 -70 323 -11 571 -3 593 19 35 35 -105 54 -299 41 -192
-14 -277 -12 -299 4 -18 13 -15 15 34 30 66 19 113 48 148 90 16 18 43 43 61
56 39 29 40 43 6 126 -14 36 -23 68 -20 71 3 3 76 0 163 -6 187 -13 343 -14
362 -2 29 19 5 22 -367 51 -126 9 -192 25 -206 49 -4 7 8 13 34 17 51 8 51 27
0 43 -39 12 -40 12 -39 59 0 28 17 96 42 167 l42 120 68 3 c51 2 69 0 73 -12
3 -7 -15 -88 -39 -177 -51 -185 -60 -236 -46 -245 6 -3 19 3 30 15 13 14 32
21 54 21 19 0 35 3 35 6 0 3 -13 17 -30 31 -18 15 -30 34 -30 49 0 22 4 24 43
24 63 0 150 -16 267 -50 58 -16 148 -36 200 -45 128 -21 130 -22 103 -45 -44
-35 -22 -66 70 -96 36 -12 54 -25 69 -50 11 -19 24 -34 28 -34 5 0 14 26 20
57 23 117 41 136 141 149 70 9 129 38 129 64 0 26 -29 26 -77 0 -48 -26 -157
-28 -171 -4 -13 24 -3 62 19 67 17 5 19 15 19 98 0 71 -4 97 -16 110 -9 10
-13 23 -9 29 14 23 129 72 174 74 51 1 48 10 35 -96 -4 -32 -2 -53 6 -63 18
-22 15 -83 -6 -107 -25 -27 -68 -48 -99 -48 -16 0 -25 -6 -25 -15 0 -8 9 -15
19 -15 37 0 151 41 160 58 5 9 14 63 19 120 13 125 34 176 76 180 l29 4 -7
-67 c-14 -139 -55 -313 -85 -362 -27 -44 -58 -62 -127 -74 -32 -6 -70 -13 -83
-16 l-24 -4 28 -29 c28 -30 29 -30 37 -217 5 -116 14 -203 22 -228 25 -69 37
-326 21 -442 -8 -63 -8 -63 17 -63 14 0 31 -7 38 -15 16 -19 50 -20 50 -1 0 8
-11 17 -25 20 -21 5 -25 12 -25 42 0 19 5 55 11 79 9 36 7 61 -11 144 -14 66
-19 115 -15 140 4 26 1 51 -9 76 -22 52 -20 59 17 76 39 17 42 43 5 47 -14 2
-30 11 -34 20 -3 9 -9 81 -12 159 -4 128 -3 143 13 149 10 4 25 -1 38 -15 19
-19 22 -33 22 -108 0 -88 7 -104 37 -81 13 11 15 22 8 63 -27 154 3 217 91
191 49 -14 94 -7 94 14 0 10 -12 16 -32 18 -21 2 -40 13 -54 30 -24 30 -23 53
6 202 24 125 32 302 14 316 -21 17 -246 -2 -349 -29 -80 -21 -105 -22 -440
-22 -279 0 -380 4 -471 17 -64 10 -210 24 -325 33 -115 8 -299 22 -409 31
-110 8 -282 19 -381 24 -366 19 -706 81 -853 154 -25 13 -59 26 -76 30 -16 4
-87 34 -157 67 -121 56 -130 59 -205 59 -87 0 -103 8 -103 52 0 24 -7 32 -43
47 -23 10 -67 39 -96 65 -30 25 -58 46 -62 46 -4 0 -9 -10 -13 -22z m113 -159
c16 -46 13 -122 -8 -217 -21 -98 -35 -118 -52 -76 -17 44 18 324 41 324 4 0
13 -14 19 -31z m3392 -506 c16 -18 17 -130 3 -333 -8 -117 -10 -125 -31 -128
-13 -2 -27 5 -37 20 -13 18 -16 53 -16 198 0 96 4 191 10 209 14 51 45 66 71
34z m-163 -37 c5 -6 29 -105 37 -151 5 -33 2 -45 -14 -64 -12 -13 -21 -37 -21
-53 0 -51 -28 -54 -191 -18 -79 17 -187 38 -239 46 -149 24 -140 21 -140 55 0
16 7 43 15 58 8 16 17 48 21 72 3 24 8 50 10 58 4 12 45 13 261 7 142 -4 259
-8 261 -10z m-951 -204 c9 -6 81 -126 139 -232 26 -46 18 -131 -19 -201 -57
-110 -119 -128 -478 -136 -243 -5 -271 -4 -504 31 -55 9 -158 22 -230 30 -71
9 -145 20 -164 25 -19 6 -142 14 -274 17 -217 7 -242 9 -259 26 -11 11 -18 27
-16 36 3 15 30 17 293 20 331 3 522 -8 646 -38 402 -95 749 -105 871 -25 47
31 78 79 78 121 0 19 -21 71 -49 125 -51 98 -76 171 -67 195 6 16 15 17 33 6z
m-1953 -48 c21 -8 20 -31 -2 -43 -10 -5 -51 -14 -92 -20 -86 -12 -158 -35
-247 -80 -34 -17 -70 -31 -81 -31 -24 0 -58 35 -43 45 6 3 11 26 11 49 0 53
13 66 82 76 65 9 350 12 372 4z"/>
<path d="M2764 2111 c3 -5 54 -30 113 -56 60 -26 138 -67 174 -91 97 -64 123
-72 307 -100 91 -13 223 -35 292 -48 69 -14 172 -32 230 -42 58 -9 129 -25
159 -35 63 -22 145 -26 139 -7 -3 7 -29 17 -59 23 -30 7 -90 23 -134 38 -44
15 -111 34 -150 43 -38 8 -108 26 -154 40 -48 14 -109 24 -145 24 -77 0 -295
27 -333 40 -15 6 -80 37 -144 70 -148 76 -314 133 -295 101z"/>
<path d="M4250 1980 c-11 -7 -12 -12 -3 -21 20 -20 242 -109 273 -109 28 0
128 -46 169 -78 36 -27 38 -27 217 -31 201 -4 248 4 372 60 73 32 100 59 59
59 -12 0 -75 -11 -140 -25 -135 -29 -164 -30 -203 -11 -21 12 -50 14 -126 9
-80 -5 -101 -3 -116 9 -35 31 -82 48 -159 56 -43 5 -96 18 -118 29 -82 42
-200 69 -225 53z"/>
<path d="M5645 1938 c-9 -24 -21 -53 -26 -66 -5 -13 -23 -41 -41 -63 l-31 -39
23 -49 c21 -46 22 -57 15 -161 -6 -92 -4 -111 7 -108 17 6 37 102 40 194 2 60
-1 75 -20 99 -12 15 -22 30 -22 34 0 3 25 39 55 79 57 76 71 122 37 122 -13 0
-25 -14 -37 -42z"/>
<path d="M5486 1694 c-3 -8 -13 -88 -21 -177 -19 -195 -34 -326 -41 -349 -7
-24 14 -23 46 2 32 25 45 25 64 -2 20 -28 20 -56 2 -77 -7 -9 -16 -32 -20 -52
-5 -30 -1 -44 26 -85 18 -27 49 -59 68 -72 30 -20 36 -30 42 -77 9 -70 51
-153 83 -165 14 -5 25 -16 25 -23 0 -25 -58 -95 -180 -218 -66 -66 -138 -144
-159 -172 -38 -51 -62 -107 -45 -107 5 0 107 98 226 217 l217 217 30 -65 31
-64 -29 -8 c-26 -6 -48 -33 -37 -44 2 -3 18 3 35 12 18 9 36 13 41 10 25 -16
4 -85 -46 -151 -13 -17 -24 -34 -24 -38 0 -11 43 15 83 50 54 50 87 44 102
-18 4 -15 15 -34 26 -44 27 -24 24 -53 -6 -64 -30 -11 -34 -34 -5 -25 13 4 31
0 46 -10 21 -13 25 -23 22 -53 -4 -43 20 -52 37 -15 12 29 16 29 45 -2 25 -27
70 -34 70 -12 0 8 -17 38 -38 68 -22 30 -52 77 -67 104 -16 28 -68 111 -117
187 -48 75 -88 141 -88 147 0 6 -24 37 -53 69 -45 49 -58 71 -81 147 -24 76
-26 95 -17 121 15 43 14 86 -5 112 -17 25 -74 56 -121 66 -48 11 -59 29 -43
75 17 54 8 80 -50 144 l-50 55 0 195 c0 177 -7 235 -24 191z"/>
<path d="M1661 1691 c-20 -13 22 -51 57 -51 46 0 101 -20 112 -40 6 -11 8 -31
4 -46 -6 -25 -8 -26 -61 -19 -57 7 -133 -1 -133 -14 0 -5 29 -11 64 -15 84 -8
123 -22 170 -59 29 -22 43 -28 54 -20 26 16 24 26 -18 82 -47 63 -57 93 -41
128 7 14 8 29 4 33 -7 7 -156 30 -187 30 -6 0 -17 -4 -25 -9z"/>
<path d="M2473 1265 c21 -8 75 -31 120 -52 73 -33 97 -38 212 -49 72 -6 136
-13 144 -15 31 -9 20 21 -13 35 -44 18 -358 83 -441 90 l-60 6 38 -15z"/>
<path d="M5000 933 c-19 -38 -25 -250 -11 -357 7 -47 26 -127 43 -178 36 -109
40 -195 15 -278 -10 -30 -16 -71 -14 -90 l3 -35 22 46 c12 25 27 70 33 100 16
73 5 279 -21 394 -11 51 -22 149 -25 225 -9 204 -16 232 -45 173z"/>
<path d="M1023 833 c-11 -28 -13 -54 -9 -103 5 -49 3 -75 -9 -103 -20 -49 -19
-113 5 -166 24 -53 26 -133 5 -315 -8 -71 -12 -133 -9 -138 8 -13 41 -9 58 8
9 8 16 29 16 45 0 36 17 72 31 64 5 -4 9 -33 9 -66 0 -32 4 -59 10 -59 11 0
17 24 24 103 2 32 9 64 14 70 5 7 13 28 17 47 4 19 14 47 21 62 14 26 13 28
-6 28 -13 0 -26 -13 -40 -39 -38 -75 -53 -62 -51 40 1 38 -6 101 -15 141 -19
81 -13 211 10 257 8 14 32 37 55 49 23 13 41 27 41 31 0 12 -53 56 -83 69 -52
22 -76 16 -94 -25z"/>
<path d="M4315 810 c-55 -4 -113 -14 -130 -21 -29 -12 -26 -13 55 -21 85 -8
490 -2 543 9 56 10 9 26 -105 34 -132 9 -224 9 -363 -1z"/>
<path d="M1312 773 c-36 -7 -45 -35 -31 -104 13 -69 6 -388 -10 -454 -12 -47
3 -73 18 -32 15 39 122 142 199 191 70 45 189 101 281 133 59 20 81 51 81 115
l0 33 -30 -36 c-20 -25 -46 -42 -82 -53 -29 -10 -115 -47 -191 -84 -134 -64
-140 -68 -163 -114 -13 -26 -28 -48 -33 -48 -18 0 -22 78 -12 222 11 153 18
185 45 208 29 23 -7 35 -72 23z"/>
<path d="M1993 694 c-25 -11 -12 -33 25 -44 44 -12 556 -26 597 -16 21 5 25
10 15 16 -19 12 -92 19 -305 30 -99 5 -211 12 -250 15 -38 2 -76 2 -82 -1z"/>
<path d="M3916 492 c-9 -14 59 -29 279 -63 372 -56 451 -61 413 -23 -22 22
-274 62 -503 79 -44 3 -103 8 -132 11 -28 3 -54 1 -57 -4z"/>
<path d="M3250 441 c-21 -4 -35 -12 -35 -20 0 -11 22 -18 80 -27 44 -6 152
-34 240 -62 212 -68 346 -102 605 -157 118 -25 244 -55 280 -66 77 -24 199
-35 220 -20 13 10 13 12 0 21 -8 5 -33 12 -55 16 -22 3 -60 15 -85 25 -64 26
-399 109 -484 119 -39 4 -127 22 -196 39 -96 24 -134 39 -163 63 -43 34 -88
47 -158 48 -26 0 -66 7 -89 15 -43 15 -97 17 -160 6z"/>
<path d="M1552 296 c-102 -55 -233 -163 -279 -228 -21 -31 -23 -41 -13 -53 7
-8 18 -15 25 -15 16 0 56 48 95 112 20 32 38 50 57 54 15 4 34 13 41 21 7 7
35 27 60 45 62 41 103 79 96 90 -8 12 -14 10 -82 -26z"/>
<path d="M1880 191 c-25 -17 30 -30 168 -41 288 -23 364 -32 556 -70 264 -51
412 -72 518 -74 116 -1 112 16 -5 31 -51 6 -112 19 -136 27 -56 20 -415 95
-538 111 -124 18 -544 29 -563 16z"/>
<path d="M1920 33 c0 -6 21 -13 48 -16 89 -12 438 -20 478 -12 l39 9 -55 7
c-99 14 -510 23 -510 12z"/>
</g>
</svg>
