<?xml version="1.0" standalone="no"?>
<!DOCTYPE svg PUBLIC "-//W3C//DTD SVG 20010904//EN"
 "http://www.w3.org/TR/2001/REC-SVG-20010904/DTD/svg10.dtd">
<svg version="1.0" xmlns="http://www.w3.org/2000/svg"
 width="1280.000000pt" height="867.000000pt" viewBox="0 0 1280.000000 867.000000"
 preserveAspectRatio="xMidYMid meet">
<metadata>
Created by potrace 1.15, written by Peter Selinger 2001-2017
</metadata>
<g transform="translate(0.000000,867.000000) scale(0.100000,-0.100000)"
fill="#000000" stroke="none">
<path d="M7904 8656 c-17 -8 -69 -52 -115 -98 -144 -145 -264 -329 -425 -655
-52 -105 -104 -199 -114 -208 -67 -61 -370 -137 -795 -199 -776 -114 -980
-108 -1407 40 -138 48 -408 164 -560 240 -175 88 -368 127 -623 128 -189 0
-276 -11 -443 -55 -195 -51 -358 -131 -610 -298 -325 -216 -818 -612 -1107
-890 -76 -73 -85 -87 -187 -281 -159 -305 -316 -623 -401 -815 -279 -633 -423
-1210 -512 -2060 -15 -137 -31 -269 -37 -293 -15 -58 -118 -212 -189 -282 -32
-31 -90 -74 -130 -95 -63 -33 -85 -39 -159 -44 l-85 -6 2 -28 c3 -44 63 -118
132 -164 35 -23 69 -52 75 -65 17 -34 77 -50 197 -56 80 -3 121 0 165 13 121
34 215 127 249 247 21 74 21 257 1 363 -23 117 -21 145 33 367 207 853 526
1758 620 1758 34 0 43 -28 62 -192 62 -544 215 -1150 453 -1795 31 -84 56
-166 56 -182 0 -90 -440 -488 -1158 -1049 -247 -192 -233 -164 -157 -318 114
-229 321 -463 584 -659 46 -34 116 -79 154 -100 l70 -38 20 24 c36 45 79 142
134 303 66 197 85 231 183 343 114 130 402 388 446 399 69 17 71 -2 79 -786 3
-322 8 -609 11 -638 5 -52 6 -53 62 -81 89 -44 206 -80 337 -103 104 -17 149
-20 330 -15 134 3 244 11 305 22 123 22 301 67 379 95 70 26 76 41 40 113 -56
110 -154 220 -304 339 -97 77 -118 107 -139 200 -57 248 -80 526 -80 953 0
362 10 481 42 524 10 14 59 54 107 88 204 143 322 266 471 493 51 79 92 130
109 138 21 10 47 8 149 -13 335 -68 666 -54 1258 52 141 25 264 43 272 40 8
-3 22 -17 31 -31 15 -23 16 -38 5 -148 -32 -338 -148 -922 -259 -1304 -52
-182 -105 -333 -201 -578 -43 -111 -96 -258 -118 -328 -62 -193 -123 -485
-110 -520 13 -33 268 -93 543 -127 323 -41 837 -70 862 -49 34 28 -15 122
-177 338 -174 232 -212 340 -176 495 29 120 81 219 308 586 281 454 515 905
783 1512 50 114 101 220 111 234 35 47 62 28 134 -94 247 -417 437 -732 896
-1489 647 -1066 679 -1120 694 -1168 17 -54 7 -302 -19 -466 -24 -145 -24
-145 68 -180 181 -67 560 -77 971 -24 160 20 323 53 338 68 10 10 -28 70 -194
307 -332 475 -369 539 -464 794 -150 405 -256 742 -490 1570 -383 1352 -450
1621 -452 1805 0 59 4 97 16 125 11 26 71 94 174 196 196 194 324 306 380 331
l43 20 142 -33 c119 -27 173 -33 332 -40 198 -8 265 -19 495 -80 173 -46 492
-155 578 -197 88 -42 103 -64 127 -178 65 -314 38 -855 -73 -1494 -36 -207
-37 -224 -37 -445 0 -244 13 -366 60 -600 54 -267 103 -400 275 -745 142 -285
158 -319 198 -439 16 -47 35 -89 44 -95 12 -7 29 5 78 57 58 62 65 67 105 67
24 0 48 -6 54 -14 25 -30 66 -38 105 -22 63 26 65 50 10 142 -124 208 -229
465 -288 704 -54 222 -70 352 -70 600 1 366 42 593 204 1115 97 311 133 466
196 848 32 194 42 212 122 222 204 25 361 70 517 145 103 50 180 110 173 132
-4 10 -56 12 -244 10 -247 -4 -394 7 -445 33 -34 18 -54 72 -45 128 11 65 7
426 -4 468 -6 22 -35 74 -66 116 -117 167 -575 859 -837 1266 -489 758 -503
774 -802 922 -224 110 -448 192 -764 279 -97 27 -263 87 -442 159 -797 322
-1132 422 -1245 373z"/>
</g>
</svg>
