<?xml version="1.0" encoding="UTF-8"?>
<!DOCTYPE svg PUBLIC "-//W3C//DTD SVG 1.1//EN" "http://www.w3.org/Graphics/SVG/1.1/DTD/svg11.dtd">
<svg xmlns="http://www.w3.org/2000/svg" version="1.1" width="1200px" height="1200px" style="shape-rendering:geometricPrecision; text-rendering:geometricPrecision; image-rendering:optimizeQuality; fill-rule:evenodd; clip-rule:evenodd" xmlns:xlink="http://www.w3.org/1999/xlink">
<g><path style="opacity:0.499" fill="#000000" d="M 834.5,670.5 C 797.165,670.333 759.832,670.5 722.5,671C 723.022,671.561 723.355,672.228 723.5,673C 722.682,695.832 721.515,718.665 720,741.5C 717.324,771.03 714.324,800.363 711,829.5C 710.789,846.32 709.956,862.987 708.5,879.5C 709.532,891.713 710.532,904.046 711.5,916.5C 716.855,956.66 739.188,972.327 778.5,963.5C 793.801,957.528 803.468,946.528 807.5,930.5C 809.372,923.273 810.372,915.94 810.5,908.5C 818.5,908.5 826.5,908.5 834.5,908.5C 833.469,948.73 820.802,984.73 796.5,1016.5C 793.537,1018.79 790.537,1021.12 787.5,1023.5C 786.614,1024.32 786.281,1025.32 786.5,1026.5C 782.907,1027.34 780.24,1029.34 778.5,1032.5C 772.073,1035.21 765.74,1038.21 759.5,1041.5C 737.231,1048 714.898,1048.16 692.5,1042C 667.041,1032.04 649.374,1014.21 639.5,988.5C 632.784,966.839 630.617,944.505 633,921.5C 637.205,857.837 642.872,794.17 650,730.5C 651.3,709.698 652.8,689.031 654.5,668.5C 622.5,668.5 590.5,668.5 558.5,668.5C 552.056,745.061 545.222,822.061 538,899.5C 535.134,920.038 531.8,940.705 528,961.5C 523.991,977.282 519.491,992.948 514.5,1008.5C 513.325,1008.28 512.325,1008.61 511.5,1009.5C 508.635,1015.29 505.635,1020.96 502.5,1026.5C 499.167,1028.5 496.5,1031.17 494.5,1034.5C 488.936,1037.65 483.269,1040.65 477.5,1043.5C 445.723,1052.96 421.723,1042.96 405.5,1013.5C 403.111,1006.24 401.444,998.906 400.5,991.5C 401.352,982.09 404.352,973.423 409.5,965.5C 420.205,949.775 431.205,934.275 442.5,919C 474.425,869.221 494.259,815.054 502,756.5C 505.639,727.387 507.806,698.054 508.5,668.5C 494.484,668.167 480.484,668.501 466.5,669.5C 444.834,671.833 426.501,680.833 411.5,696.5C 402.343,709.398 394.01,722.731 386.5,736.5C 378.5,736.5 370.5,736.5 362.5,736.5C 371.782,711.125 381.448,685.791 391.5,660.5C 402.721,629.441 424.388,610.274 456.5,603C 468.387,601.177 480.053,599.177 491.5,597C 515.617,595.568 539.617,594.235 563.5,593C 645.167,592.333 726.833,592.333 808.5,593C 817.125,594.201 825.792,594.701 834.5,594.5C 834.5,619.833 834.5,645.167 834.5,670.5 Z M 716.5,664.5 C 716.667,679.504 716.5,694.504 716,709.5C 711.737,756.389 707.404,803.389 703,850.5C 701.61,876.327 702.943,901.993 707,927.5C 715.973,962.072 738.14,976.739 773.5,971.5C 793.994,966.007 807.328,953.007 813.5,932.5C 815.584,926.719 816.584,920.719 816.5,914.5C 820.437,914.793 824.27,914.46 828,913.5C 826.594,946.55 816.428,976.883 797.5,1004.5C 793.377,1010.12 788.71,1015.29 783.5,1020C 782.552,1020.48 781.552,1020.65 780.5,1020.5C 780.719,1021.68 780.386,1022.68 779.5,1023.5C 755.457,1040.1 729.123,1044.76 700.5,1037.5C 667.236,1027.89 647.57,1005.89 641.5,971.5C 640.697,962.87 639.697,954.37 638.5,946C 640.314,911.267 642.481,876.434 645,841.5C 649.477,798.731 653.81,756.064 658,713.5C 659.115,696.509 659.948,679.509 660.5,662.5C 624.5,662.5 588.5,662.5 552.5,662.5C 546.162,740.223 539.162,817.89 531.5,895.5C 528.153,930.602 521.486,964.935 511.5,998.5C 510.5,998.5 509.5,998.5 508.5,998.5C 507.989,1003.53 506.323,1008.2 503.5,1012.5C 501.819,1015.88 499.486,1018.55 496.5,1020.5C 495.493,1023.36 493.827,1025.86 491.5,1028C 475.632,1040.25 457.965,1043.58 438.5,1038C 414.523,1026.21 404.69,1007.05 409,980.5C 411.149,976.203 413.315,971.87 415.5,967.5C 431.069,946.227 445.903,924.561 460,902.5C 493.155,842.043 510.322,777.376 511.5,708.5C 512.5,708.5 513.5,708.5 514.5,708.5C 514.5,693.167 514.5,677.833 514.5,662.5C 497.154,662.167 479.821,662.5 462.5,663.5C 439.082,666.873 419.749,677.54 404.5,695.5C 397.05,706.845 389.716,718.345 382.5,730C 379.24,730.784 376.073,730.617 373,729.5C 380.245,706.962 388.411,684.628 397.5,662.5C 405.606,638.229 421.606,621.729 445.5,613C 462.315,608.256 479.315,604.922 496.5,603C 529.844,601.406 563.178,600.072 596.5,599C 673.856,598.505 751.19,599.005 828.5,600.5C 828.5,621.833 828.5,643.167 828.5,664.5C 791.167,664.5 753.833,664.5 716.5,664.5 Z"/></g>
<g><path style="opacity:0.004" fill="#000000" d="M 435.5,607.5 C 436.833,608.167 436.833,608.167 435.5,607.5 Z"/></g>
<g><path style="opacity:0.004" fill="#000000" d="M 431.5,609.5 C 432.833,610.167 432.833,610.167 431.5,609.5 Z"/></g>
<g><path style="opacity:0.004" fill="#000000" d="M 427.5,611.5 C 428.833,612.167 428.833,612.167 427.5,611.5 Z"/></g>
<g><path style="opacity:0.004" fill="#000000" d="M 423.5,613.5 C 424.833,614.167 424.833,614.167 423.5,613.5 Z"/></g>
<g><path style="opacity:0.004" fill="#000000" d="M 421.5,615.5 C 422.833,616.167 422.833,616.167 421.5,615.5 Z"/></g>
<g><path style="opacity:0.004" fill="#000000" d="M 415.5,619.5 C 416.833,620.167 416.833,620.167 415.5,619.5 Z"/></g>
<g><path style="opacity:0.004" fill="#000000" d="M 413.5,621.5 C 414.833,622.167 414.833,622.167 413.5,621.5 Z"/></g>
<g><path style="opacity:0.004" fill="#000000" d="M 411.5,623.5 C 412.833,624.167 412.833,624.167 411.5,623.5 Z"/></g>
<g><path style="opacity:0.004" fill="#000000" d="M 409.5,625.5 C 410.833,626.167 410.833,626.167 409.5,625.5 Z"/></g>
<g><path style="opacity:0.004" fill="#000000" d="M 407.5,627.5 C 408.833,628.167 408.833,628.167 407.5,627.5 Z"/></g>
<g><path style="opacity:0.004" fill="#000000" d="M 405.5,629.5 C 406.833,630.167 406.833,630.167 405.5,629.5 Z"/></g>
<g><path style="opacity:0.004" fill="#000000" d="M 401.5,635.5 C 402.833,636.167 402.833,636.167 401.5,635.5 Z"/></g>
<g><path style="opacity:0.004" fill="#000000" d="M 397.5,641.5 C 398.833,642.167 398.833,642.167 397.5,641.5 Z"/></g>
<g><path style="opacity:0.004" fill="#000000" d="M 395.5,645.5 C 396.833,646.167 396.833,646.167 395.5,645.5 Z"/></g>
<g><path style="opacity:0.004" fill="#000000" d="M 393.5,649.5 C 394.833,650.167 394.833,650.167 393.5,649.5 Z"/></g>
<g><path style="opacity:0.005" fill="#000000" d="M 660.5,662.5 C 660.511,659.999 661.178,659.832 662.5,662C 661.906,662.464 661.239,662.631 660.5,662.5 Z"/></g>
<g><path style="opacity:0.005" fill="#000000" d="M 834.5,670.5 C 837.001,670.511 837.168,671.178 835,672.5C 834.536,671.906 834.369,671.239 834.5,670.5 Z"/></g>
<g><path style="opacity:0.004" fill="#000000" d="M 438.5,678.5 C 439.833,679.167 439.833,679.167 438.5,678.5 Z"/></g>
<g><path style="opacity:0.004" fill="#000000" d="M 434.5,680.5 C 435.833,681.167 435.833,681.167 434.5,680.5 Z"/></g>
<g><path style="opacity:0.004" fill="#000000" d="M 430.5,682.5 C 431.833,683.167 431.833,683.167 430.5,682.5 Z"/></g>
<g><path style="opacity:0.004" fill="#000000" d="M 379.5,683.5 C 380.833,684.167 380.833,684.167 379.5,683.5 Z"/></g>
<g><path style="opacity:0.004" fill="#000000" d="M 424.5,686.5 C 425.833,687.167 425.833,687.167 424.5,686.5 Z"/></g>
<g><path style="opacity:0.004" fill="#000000" d="M 422.5,688.5 C 423.833,689.167 423.833,689.167 422.5,688.5 Z"/></g>
<g><path style="opacity:0.004" fill="#000000" d="M 420.5,690.5 C 421.833,691.167 421.833,691.167 420.5,690.5 Z"/></g>
<g><path style="opacity:0.004" fill="#000000" d="M 412.5,698.5 C 413.833,699.167 413.833,699.167 412.5,698.5 Z"/></g>
<g><path style="opacity:0.004" fill="#000000" d="M 373.5,699.5 C 374.833,700.167 374.833,700.167 373.5,699.5 Z"/></g>
<g><path style="opacity:0.004" fill="#000000" d="M 410.5,700.5 C 411.833,701.167 411.833,701.167 410.5,700.5 Z"/></g>
<g><path style="opacity:0.004" fill="#000000" d="M 408.5,702.5 C 409.833,703.167 409.833,703.167 408.5,702.5 Z"/></g>
<g><path style="opacity:0.004" fill="#000000" d="M 406.5,706.5 C 407.833,707.167 407.833,707.167 406.5,706.5 Z"/></g>
<g><path style="opacity:0.004" fill="#000000" d="M 369.5,709.5 C 370.833,710.167 370.833,710.167 369.5,709.5 Z"/></g>
<g><path style="opacity:0.004" fill="#000000" d="M 402.5,712.5 C 403.833,713.167 403.833,713.167 402.5,712.5 Z"/></g>
<g><path style="opacity:0.004" fill="#000000" d="M 398.5,718.5 C 399.833,719.167 399.833,719.167 398.5,718.5 Z"/></g>
<g><path style="opacity:0.004" fill="#000000" d="M 365.5,719.5 C 366.833,720.167 366.833,720.167 365.5,719.5 Z"/></g>
<g><path style="opacity:0.004" fill="#000000" d="M 396.5,722.5 C 397.833,723.167 397.833,723.167 396.5,722.5 Z"/></g>
<g><path style="opacity:0.004" fill="#000000" d="M 394.5,726.5 C 395.833,727.167 395.833,727.167 394.5,726.5 Z"/></g>
<g><path style="opacity:0.004" fill="#000000" d="M 392.5,728.5 C 393.833,729.167 393.833,729.167 392.5,728.5 Z"/></g>
<g><path style="opacity:0.004" fill="#000000" d="M 388.5,734.5 C 389.833,735.167 389.833,735.167 388.5,734.5 Z"/></g>
<g><path style="opacity:0.005" fill="#000000" d="M 386.5,736.5 C 389.001,736.511 389.168,737.178 387,738.5C 386.536,737.906 386.369,737.239 386.5,736.5 Z"/></g>
<g><path style="opacity:0.004" fill="#000000" d="M 455.5,891.5 C 456.833,892.167 456.833,892.167 455.5,891.5 Z"/></g>
<g><path style="opacity:0.004" fill="#000000" d="M 453.5,895.5 C 454.833,896.167 454.833,896.167 453.5,895.5 Z"/></g>
<g><path style="opacity:0.004" fill="#000000" d="M 447.5,905.5 C 448.833,906.167 448.833,906.167 447.5,905.5 Z"/></g>
<g><path style="opacity:0.004" fill="#000000" d="M 810.5,908.5 C 809.833,907.167 809.833,907.167 810.5,908.5 Z"/></g>
<g><path style="opacity:0.004" fill="#000000" d="M 834.5,907.5 C 835.833,908.167 835.833,908.167 834.5,907.5 Z"/></g>
<g><path style="opacity:0.004" fill="#000000" d="M 443.5,911.5 C 444.833,912.167 444.833,912.167 443.5,911.5 Z"/></g>
<g><path style="opacity:0.004" fill="#000000" d="M 441.5,915.5 C 442.833,916.167 442.833,916.167 441.5,915.5 Z"/></g>
<g><path style="opacity:0.004" fill="#000000" d="M 439.5,917.5 C 440.833,918.167 440.833,918.167 439.5,917.5 Z"/></g>
<g><path style="opacity:0.004" fill="#000000" d="M 437.5,921.5 C 438.833,922.167 438.833,922.167 437.5,921.5 Z"/></g>
<g><path style="opacity:0.004" fill="#000000" d="M 435.5,923.5 C 436.833,924.167 436.833,924.167 435.5,923.5 Z"/></g>
<g><path style="opacity:0.004" fill="#000000" d="M 431.5,929.5 C 432.833,930.167 432.833,930.167 431.5,929.5 Z"/></g>
<g><path style="opacity:0.004" fill="#000000" d="M 429.5,931.5 C 430.833,932.167 430.833,932.167 429.5,931.5 Z"/></g>
<g><path style="opacity:0.004" fill="#000000" d="M 427.5,935.5 C 428.833,936.167 428.833,936.167 427.5,935.5 Z"/></g>
<g><path style="opacity:0.004" fill="#000000" d="M 425.5,937.5 C 426.833,938.167 426.833,938.167 425.5,937.5 Z"/></g>
<g><path style="opacity:0.004" fill="#000000" d="M 421.5,943.5 C 422.833,944.167 422.833,944.167 421.5,943.5 Z"/></g>
<g><path style="opacity:0.004" fill="#000000" d="M 419.5,945.5 C 420.833,946.167 420.833,946.167 419.5,945.5 Z"/></g>
<g><path style="opacity:0.004" fill="#000000" d="M 797.5,945.5 C 798.833,946.167 798.833,946.167 797.5,945.5 Z"/></g>
<g><path style="opacity:0.004" fill="#000000" d="M 724.5,947.5 C 725.833,948.167 725.833,948.167 724.5,947.5 Z"/></g>
<g><path style="opacity:0.004" fill="#000000" d="M 726.5,949.5 C 727.833,950.167 727.833,950.167 726.5,949.5 Z"/></g>
<g><path style="opacity:0.004" fill="#000000" d="M 415.5,951.5 C 416.833,952.167 416.833,952.167 415.5,951.5 Z"/></g>
<g><path style="opacity:0.004" fill="#000000" d="M 793.5,951.5 C 794.833,952.167 794.833,952.167 793.5,951.5 Z"/></g>
<g><path style="opacity:0.004" fill="#000000" d="M 413.5,953.5 C 414.833,954.167 414.833,954.167 413.5,953.5 Z"/></g>
<g><path style="opacity:0.004" fill="#000000" d="M 732.5,955.5 C 733.833,956.167 733.833,956.167 732.5,955.5 Z"/></g>
<g><path style="opacity:0.004" fill="#000000" d="M 411.5,957.5 C 412.833,958.167 412.833,958.167 411.5,957.5 Z"/></g>
<g><path style="opacity:0.004" fill="#000000" d="M 734.5,957.5 C 735.833,958.167 735.833,958.167 734.5,957.5 Z"/></g>
<g><path style="opacity:0.004" fill="#000000" d="M 785.5,957.5 C 786.833,958.167 786.833,958.167 785.5,957.5 Z"/></g>
<g><path style="opacity:0.004" fill="#000000" d="M 738.5,959.5 C 739.833,960.167 739.833,960.167 738.5,959.5 Z"/></g>
<g><path style="opacity:0.004" fill="#000000" d="M 781.5,959.5 C 782.833,960.167 782.833,960.167 781.5,959.5 Z"/></g>
<g><path style="opacity:0.004" fill="#000000" d="M 407.5,963.5 C 408.833,964.167 408.833,964.167 407.5,963.5 Z"/></g>
<g><path style="opacity:0.004" fill="#000000" d="M 403.5,971.5 C 404.833,972.167 404.833,972.167 403.5,971.5 Z"/></g>
<g><path style="opacity:0.004" fill="#000000" d="M 822.5,974.5 C 823.833,975.167 823.833,975.167 822.5,974.5 Z"/></g>
<g><path style="opacity:0.004" fill="#000000" d="M 639.5,994.5 C 640.833,995.167 640.833,995.167 639.5,994.5 Z"/></g>
<g><path style="opacity:0.004" fill="#000000" d="M 518.5,998.5 C 519.833,999.167 519.833,999.167 518.5,998.5 Z"/></g>
<g><path style="opacity:0.004" fill="#000000" d="M 810.5,998.5 C 811.833,999.167 811.833,999.167 810.5,998.5 Z"/></g>
<g><path style="opacity:0.004" fill="#000000" d="M 643.5,1002.5 C 644.833,1003.17 644.833,1003.17 643.5,1002.5 Z"/></g>
<g><path style="opacity:0.004" fill="#000000" d="M 806.5,1004.5 C 807.833,1005.17 807.833,1005.17 806.5,1004.5 Z"/></g>
<g><path style="opacity:0.004" fill="#000000" d="M 645.5,1006.5 C 646.833,1007.17 646.833,1007.17 645.5,1006.5 Z"/></g>
<g><path style="opacity:0.004" fill="#000000" d="M 802.5,1010.5 C 803.833,1011.17 803.833,1011.17 802.5,1010.5 Z"/></g>
<g><path style="opacity:0.004" fill="#000000" d="M 649.5,1012.5 C 650.833,1013.17 650.833,1013.17 649.5,1012.5 Z"/></g>
<g><path style="opacity:0.004" fill="#000000" d="M 800.5,1012.5 C 801.833,1013.17 801.833,1013.17 800.5,1012.5 Z"/></g>
<g><path style="opacity:0.004" fill="#000000" d="M 403.5,1014.5 C 404.833,1015.17 404.833,1015.17 403.5,1014.5 Z"/></g>
<g><path style="opacity:0.004" fill="#000000" d="M 651.5,1014.5 C 652.833,1015.17 652.833,1015.17 651.5,1014.5 Z"/></g>
<g><path style="opacity:0.004" fill="#000000" d="M 798.5,1014.5 C 799.833,1015.17 799.833,1015.17 798.5,1014.5 Z"/></g>
<g><path style="opacity:0.004" fill="#000000" d="M 796.5,1016.5 C 797.833,1017.17 797.833,1017.17 796.5,1016.5 Z"/></g>
<g><path style="opacity:0.004" fill="#000000" d="M 405.5,1018.5 C 406.833,1019.17 406.833,1019.17 405.5,1018.5 Z"/></g>
<g><path style="opacity:0.004" fill="#000000" d="M 508.5,1018.5 C 509.833,1019.17 509.833,1019.17 508.5,1018.5 Z"/></g>
<g><path style="opacity:0.004" fill="#000000" d="M 407.5,1022.5 C 408.833,1023.17 408.833,1023.17 407.5,1022.5 Z"/></g>
<g><path style="opacity:0.004" fill="#000000" d="M 657.5,1022.5 C 658.833,1023.17 658.833,1023.17 657.5,1022.5 Z"/></g>
<g><path style="opacity:0.004" fill="#000000" d="M 502.5,1026.5 C 503.833,1027.17 503.833,1027.17 502.5,1026.5 Z"/></g>
<g><path style="opacity:0.004" fill="#000000" d="M 786.5,1026.5 C 787.833,1027.17 787.833,1027.17 786.5,1026.5 Z"/></g>
<g><path style="opacity:0.004" fill="#000000" d="M 784.5,1028.5 C 785.833,1029.17 785.833,1029.17 784.5,1028.5 Z"/></g>
<g><path style="opacity:0.004" fill="#000000" d="M 667.5,1030.5 C 668.833,1031.17 668.833,1031.17 667.5,1030.5 Z"/></g>
<g><path style="opacity:0.004" fill="#000000" d="M 415.5,1032.5 C 416.833,1033.17 416.833,1033.17 415.5,1032.5 Z"/></g>
<g><path style="opacity:0.004" fill="#000000" d="M 669.5,1032.5 C 670.833,1033.17 670.833,1033.17 669.5,1032.5 Z"/></g>
<g><path style="opacity:0.004" fill="#000000" d="M 778.5,1032.5 C 779.833,1033.17 779.833,1033.17 778.5,1032.5 Z"/></g>
<g><path style="opacity:0.004" fill="#000000" d="M 417.5,1034.5 C 418.833,1035.17 418.833,1035.17 417.5,1034.5 Z"/></g>
<g><path style="opacity:0.004" fill="#000000" d="M 494.5,1034.5 C 495.833,1035.17 495.833,1035.17 494.5,1034.5 Z"/></g>
<g><path style="opacity:0.004" fill="#000000" d="M 673.5,1034.5 C 674.833,1035.17 674.833,1035.17 673.5,1034.5 Z"/></g>
<g><path style="opacity:0.004" fill="#000000" d="M 776.5,1034.5 C 777.833,1035.17 777.833,1035.17 776.5,1034.5 Z"/></g>
<g><path style="opacity:0.004" fill="#000000" d="M 492.5,1036.5 C 493.833,1037.17 493.833,1037.17 492.5,1036.5 Z"/></g>
<g><path style="opacity:0.004" fill="#000000" d="M 772.5,1036.5 C 773.833,1037.17 773.833,1037.17 772.5,1036.5 Z"/></g>
<g><path style="opacity:0.004" fill="#000000" d="M 423.5,1038.5 C 424.833,1039.17 424.833,1039.17 423.5,1038.5 Z"/></g>
<g><path style="opacity:0.004" fill="#000000" d="M 490.5,1038.5 C 491.833,1039.17 491.833,1039.17 490.5,1038.5 Z"/></g>
<g><path style="opacity:0.004" fill="#000000" d="M 486.5,1040.5 C 487.833,1041.17 487.833,1041.17 486.5,1040.5 Z"/></g>
<g><path style="opacity:0.004" fill="#000000" d="M 760.5,1042.5 C 761.833,1043.17 761.833,1043.17 760.5,1042.5 Z"/></g>
<g><path style="opacity:0.004" fill="#000000" d="M 478.5,1044.5 C 479.833,1045.17 479.833,1045.17 478.5,1044.5 Z"/></g>
</svg>
