<?xml version="1.0" standalone="no"?>
<!DOCTYPE svg PUBLIC "-//W3C//DTD SVG 20010904//EN"
 "http://www.w3.org/TR/2001/REC-SVG-20010904/DTD/svg10.dtd">
<svg version="1.0" xmlns="http://www.w3.org/2000/svg"
 width="600.000000pt" height="600.000000pt" viewBox="0 0 600.000000 600.000000"
 preserveAspectRatio="xMidYMid meet">

<g transform="translate(0.000000,600.000000) scale(0.100000,-0.100000)"
fill="#000000" stroke="none">
<path d="M2815 3019 c-372 -9 -531 -31 -653 -93 -58 -30 -132 -107 -166 -174
-27 -53 -168 -413 -164 -418 2 -1 23 -5 48 -9 43 -6 46 -4 66 27 11 18 40 63
63 100 98 155 209 208 430 208 l114 0 -6 -147 c-12 -268 -67 -560 -141 -752
-65 -168 -136 -295 -273 -486 -92 -128 -113 -172 -113 -242 0 -173 171 -300
340 -253 104 29 185 121 233 267 59 180 88 392 147 1073 22 261 43 490 46 508
l5 32 244 0 245 0 0 -37 c0 -43 -18 -249 -54 -628 -53 -546 -61 -788 -32 -890
55 -190 179 -300 366 -327 188 -28 347 43 460 204 74 105 127 255 145 411 l6
57 -55 0 -56 0 0 -34 c0 -104 -82 -223 -170 -246 -24 -7 -75 -10 -112 -8 -92
5 -141 39 -186 128 -62 125 -66 319 -17 825 14 143 28 322 31 398 l7 137 280
0 280 0 -7 182 c-4 100 -8 183 -9 184 -7 6 -1113 8 -1342 3z m1333 -181 l2
-168 -274 0 -274 0 -6 -97 c-3 -54 -19 -258 -36 -453 -41 -487 -43 -532 -30
-640 25 -222 95 -319 243 -336 156 -18 272 81 302 259 6 35 8 37 42 37 l36 0
-6 -62 c-24 -248 -157 -472 -326 -552 -58 -27 -79 -31 -171 -34 -88 -3 -115 0
-169 18 -159 53 -255 174 -283 354 -15 99 -1 379 42 826 28 282 60 644 60 678
0 18 -519 18 -525 0 -2 -7 -22 -227 -45 -488 -49 -570 -73 -785 -105 -947 -64
-318 -161 -444 -341 -446 -179 -2 -306 191 -227 347 8 17 57 90 108 161 154
215 235 377 299 591 51 171 88 412 102 660 l6 121 -32 7 c-55 10 -164 7 -244
-9 -145 -27 -234 -94 -323 -240 -46 -75 -51 -80 -86 -83 -20 -2 -37 -1 -37 2
0 20 158 400 182 438 83 131 200 182 478 208 170 15 214 16 955 16 l680 -1 3
-167z"/>
</g>
</svg>
