<?xml version="1.0" standalone="no"?>
<!DOCTYPE svg PUBLIC "-//W3C//DTD SVG 20010904//EN"
 "http://www.w3.org/TR/2001/REC-SVG-20010904/DTD/svg10.dtd">
<svg version="1.0" xmlns="http://www.w3.org/2000/svg"
 width="1200.000000pt" height="1200.000000pt" viewBox="0 0 1200.000000 1200.000000"
 preserveAspectRatio="xMidYMid meet">

<g transform="translate(0.000000,1200.000000) scale(0.100000,-0.100000)"
fill="#000000" stroke="none">
<path d="M5600 6043 c-163 -2 -488 -20 -625 -34 -417 -42 -645 -116 -802 -263
-139 -129 -197 -241 -385 -741 -17 -44 -39 -99 -49 -122 -11 -24 -19 -47 -19
-53 0 -8 -29 -78 -51 -122 -19 -38 -11 -46 49 -53 31 -3 73 -8 92 -11 32 -5
38 -1 71 43 19 26 50 75 69 108 124 221 238 344 390 423 166 85 380 122 636
107 l124 -7 0 -137 c0 -231 -46 -706 -89 -921 -5 -25 -15 -74 -22 -110 -10
-54 -54 -234 -88 -365 -20 -72 -84 -261 -92 -269 -5 -6 -9 -16 -9 -23 0 -8 -9
-33 -20 -55 -11 -23 -20 -45 -20 -49 0 -15 -122 -264 -173 -354 -57 -102 -222
-347 -362 -540 -107 -147 -170 -264 -185 -345 -20 -103 10 -250 72 -353 95
-159 269 -257 452 -257 160 1 287 52 398 160 166 163 258 404 347 915 10 56
16 99 41 280 27 195 69 615 100 985 6 69 15 176 20 238 6 61 15 164 20 227 6
63 15 168 20 233 6 64 15 164 20 222 5 58 14 168 21 245 6 77 14 169 18 205
l6 65 494 3 494 2 -6 -117 c-12 -205 -40 -532 -77 -903 -6 -58 -15 -151 -20
-207 -6 -57 -14 -149 -20 -205 -48 -511 -64 -717 -81 -1083 -17 -366 -5 -514
57 -687 97 -270 294 -459 560 -536 231 -67 488 -51 681 44 112 55 166 94 264
193 228 230 393 640 411 1021 l2 55 -101 3 c-112 3 -113 3 -113 -75 0 -56 -30
-166 -65 -238 -61 -127 -145 -201 -276 -245 -49 -16 -88 -21 -172 -21 -154 0
-229 27 -328 119 -103 95 -163 254 -189 503 -19 177 -7 580 30 952 24 251 31
323 60 650 23 259 31 372 37 552 3 105 10 196 16 203 8 10 118 11 552 6 528
-7 542 -7 546 12 2 10 2 177 -1 369 l-5 350 -425 6 c-399 6 -2003 7 -2300 2z
m2365 -32 l330 -6 0 -333 0 -333 -550 -2 -550 -2 -7 -200 c-6 -190 -17 -358
-38 -580 -5 -55 -14 -154 -20 -220 -6 -66 -15 -163 -20 -215 -5 -52 -14 -144
-19 -205 -6 -60 -16 -166 -23 -235 -17 -176 -17 -746 0 -830 31 -153 60 -248
95 -310 77 -139 169 -209 320 -244 91 -21 168 -20 259 3 169 44 278 135 352
295 22 46 56 179 56 218 0 53 7 58 81 58 l69 0 0 -47 c0 -107 -44 -319 -102
-488 -32 -94 -125 -278 -181 -357 -50 -72 -184 -218 -200 -218 -4 0 -19 -10
-32 -23 -14 -12 -42 -31 -62 -42 -21 -11 -40 -22 -43 -25 -18 -19 -130 -60
-220 -81 -91 -21 -327 -15 -435 11 -245 61 -426 202 -532 415 -37 74 -68 162
-82 235 -6 30 -15 79 -21 108 -25 130 3 688 70 1405 21 224 30 315 40 417 37
361 67 710 80 900 5 80 12 173 16 208 l6 62 -528 -2 -529 -3 -2 -30 c-3 -30
-15 -178 -33 -382 -6 -62 -14 -165 -20 -228 -5 -63 -14 -166 -20 -227 -5 -62
-14 -169 -20 -238 -6 -69 -15 -172 -20 -230 -5 -58 -14 -163 -20 -235 -25
-305 -67 -698 -101 -955 -19 -143 -34 -228 -65 -385 -33 -164 -29 -148 -89
-345 -9 -30 -21 -59 -26 -65 -5 -5 -9 -19 -9 -31 0 -12 -3 -24 -7 -26 -5 -2
-19 -25 -33 -53 -80 -164 -202 -274 -360 -325 -56 -17 -180 -23 -245 -11 -84
15 -193 71 -259 134 -31 29 -56 56 -56 60 0 4 -11 24 -24 45 -46 69 -82 216
-73 293 3 26 20 81 37 122 33 80 51 108 259 397 341 474 514 863 649 1455 13
55 44 232 61 340 9 62 17 130 36 295 3 25 9 124 14 220 6 96 13 225 17 286 6
103 5 111 -12 118 -10 4 -91 10 -179 13 -468 17 -754 -114 -958 -439 -37 -59
-67 -110 -67 -113 0 -4 -18 -33 -40 -66 l-41 -59 -64 0 c-35 0 -66 4 -69 9 -3
4 21 75 53 157 52 132 94 240 164 424 38 101 118 264 159 325 195 289 503 380
1408 414 253 9 2000 11 2475 2z"/>
</g>
</svg>
