<svg id="svg" version="1.1" width="800" height="800" xmlns="http://www.w3.org/2000/svg"><path d="M362.962 116.059 C 356.727 116.978,336.546 123.542,333.527 125.633 C 332.443 126.385,331.020 127.000,330.367 127.000 C 328.758 127.000,316.180 134.154,307.035 140.270 C 299.553 145.274,268.443 173.282,261.099 181.625 C 257.312 185.927,249.006 198.998,248.994 200.675 C 248.990 201.129,248.383 202.658,247.645 204.073 C 246.265 206.718,242.834 217.459,240.397 226.763 C 239.639 229.658,237.860 240.908,236.443 251.763 C 234.278 268.353,233.916 274.609,234.168 291.000 L 234.469 310.500 231.630 313.310 C 229.382 315.533,228.925 316.681,229.438 318.810 C 229.795 320.289,230.236 323.300,230.418 325.500 C 230.601 327.700,231.510 331.750,232.437 334.500 C 233.365 337.250,234.780 341.750,235.581 344.500 C 237.203 350.066,241.000 373.459,241.000 377.884 C 241.000 379.447,241.932 384.500,243.071 389.113 C 244.682 395.638,245.884 398.277,248.482 401.000 C 251.128 403.772,251.915 405.539,252.269 409.500 C 252.515 412.250,253.460 419.675,254.370 426.000 C 255.894 436.601,256.773 440.484,260.482 453.000 C 261.215 455.475,262.114 459.075,262.480 461.000 C 262.847 462.925,264.416 467.200,265.967 470.500 C 267.519 473.800,270.026 479.200,271.539 482.500 C 273.052 485.800,276.249 491.053,278.645 494.174 C 281.040 497.295,283.000 500.452,283.000 501.190 C 283.000 501.927,281.896 504.549,280.546 507.015 C 276.722 514.006,273.397 521.000,271.047 527.000 C 269.862 530.025,268.496 533.400,268.011 534.500 C 267.526 535.600,266.209 538.674,265.085 541.332 C 263.960 543.989,261.859 547.567,260.416 549.282 C 258.973 550.998,256.254 555.686,254.374 559.700 C 252.495 563.715,250.380 567.000,249.674 567.000 C 248.969 567.000,246.391 568.244,243.946 569.764 C 241.501 571.284,235.225 574.475,230.000 576.854 C 217.586 582.507,213.917 584.354,205.500 589.185 C 201.650 591.395,195.125 594.685,191.000 596.496 C 181.190 600.804,164.255 608.630,160.669 610.513 C 159.112 611.331,157.252 612.000,156.535 612.000 C 153.184 612.000,131.413 621.991,113.778 631.621 C 108.341 634.591,101.329 638.101,98.196 639.423 C 95.063 640.745,87.775 644.043,82.000 646.752 C 76.225 649.461,68.350 652.899,64.500 654.391 C 60.650 655.884,56.600 657.485,55.500 657.949 C 54.400 658.414,51.025 659.797,48.000 661.023 C 44.975 662.249,40.907 664.509,38.961 666.043 C 30.352 672.832,2.000 717.994,2.000 724.919 C 2.000 725.999,1.550 727.160,1.000 727.500 C 0.450 727.840,-0.000 729.277,0.000 730.694 L 0.000 733.270 1.785 730.885 C 2.767 729.573,4.793 725.938,6.288 722.807 C 7.783 719.676,9.454 716.837,10.003 716.498 C 10.551 716.159,11.000 715.035,11.000 714.000 C 11.000 710.899,12.799 710.755,14.496 713.720 L 16.087 716.500 15.549 712.000 C 15.094 708.190,15.471 706.771,18.007 702.750 C 19.655 700.138,21.369 698.000,21.815 698.000 C 22.262 698.000,23.248 699.583,24.007 701.519 C 25.701 705.835,27.500 705.525,27.500 700.917 C 27.500 697.944,27.207 697.541,25.243 697.814 C 21.992 698.266,21.084 695.160,23.820 692.945 C 25.004 691.986,26.434 689.987,26.999 688.504 C 27.563 687.020,28.870 685.585,29.905 685.315 C 30.978 685.034,32.028 683.609,32.351 681.996 C 32.662 680.441,34.848 676.918,37.208 674.168 C 42.218 668.330,50.666 663.537,62.923 659.579 C 67.555 658.083,73.503 655.765,76.140 654.429 C 78.776 653.093,81.601 652.000,82.417 652.000 C 83.232 652.000,86.510 650.419,89.700 648.487 C 92.890 646.554,97.187 644.697,99.250 644.359 C 101.312 644.021,103.000 643.352,103.000 642.872 C 103.000 642.392,104.070 642.000,105.378 642.000 C 106.685 642.000,108.346 641.288,109.068 640.418 C 109.790 639.549,113.073 637.478,116.363 635.817 C 119.654 634.155,122.924 632.219,123.630 631.513 C 125.637 629.506,145.469 620.054,149.174 619.339 C 151.003 618.985,153.388 618.090,154.473 617.348 C 155.557 616.607,157.357 615.986,158.473 615.968 C 159.588 615.951,161.308 615.323,162.296 614.574 C 163.285 613.825,164.972 613.441,166.046 613.722 C 167.142 614.009,168.000 613.732,168.000 613.092 C 168.000 612.464,169.238 611.491,170.750 610.929 C 172.262 610.368,177.243 608.039,181.818 605.756 C 188.054 602.643,190.332 601.918,190.914 602.861 C 191.480 603.777,192.121 603.465,193.267 601.716 C 194.133 600.394,197.465 598.078,200.671 596.569 C 203.877 595.060,209.299 592.454,212.720 590.778 C 217.556 588.409,220.537 587.667,226.114 587.442 C 230.712 587.257,233.589 586.677,234.128 585.827 C 235.394 583.830,235.168 582.432,233.800 583.800 C 232.375 585.225,225.000 585.424,225.000 584.039 C 225.000 583.510,226.688 582.618,228.750 582.058 C 230.813 581.497,234.249 580.096,236.386 578.945 C 239.971 577.013,240.215 576.992,239.538 578.675 C 239.135 579.679,238.157 582.638,237.364 585.250 C 236.571 587.862,235.525 590.000,235.039 590.000 C 232.983 590.000,231.050 600.944,232.503 604.354 C 233.191 605.967,233.469 605.790,234.647 602.989 C 235.391 601.219,236.000 598.729,236.000 597.457 C 236.000 596.184,236.675 594.468,237.500 593.643 C 238.325 592.818,239.000 591.546,239.000 590.817 C 239.000 588.835,243.825 575.916,245.546 573.289 C 247.354 570.529,250.583 570.090,249.504 572.750 C 247.589 577.474,245.009 585.435,245.079 586.407 C 245.122 587.008,245.641 586.150,246.231 584.500 C 246.822 582.850,248.361 579.933,249.652 578.018 C 250.944 576.103,252.000 573.972,252.000 573.282 C 252.000 572.593,253.300 569.435,254.888 566.265 C 256.477 563.094,258.539 558.362,259.471 555.750 C 260.403 553.138,261.578 551.000,262.083 551.000 C 263.761 551.000,263.032 555.777,260.146 563.682 C 256.841 572.735,255.823 578.095,257.036 580.058 C 257.756 581.223,257.966 581.210,258.358 579.972 C 258.614 579.162,259.313 576.970,259.912 575.101 C 260.510 573.231,261.003 570.756,261.006 569.601 C 261.010 568.445,261.685 566.211,262.506 564.636 C 263.328 563.060,264.000 560.719,264.000 559.433 C 264.000 556.068,266.075 552.000,267.791 552.000 C 268.912 552.000,269.127 551.171,268.697 548.518 C 268.386 546.603,268.500 544.809,268.951 544.531 C 269.401 544.252,270.001 542.781,270.283 541.262 C 271.556 534.416,282.800 509.900,285.004 509.165 C 285.873 508.876,285.956 511.149,285.334 518.139 C 283.846 534.848,284.600 551.227,287.493 565.000 C 288.937 571.875,290.500 579.752,290.967 582.504 C 291.433 585.257,293.022 590.882,294.496 595.004 C 295.971 599.127,297.829 605.200,298.625 608.500 C 299.422 611.800,300.491 615.850,301.002 617.500 C 301.513 619.150,302.185 621.757,302.495 623.293 C 302.806 624.829,305.188 628.204,307.789 630.793 C 310.391 633.382,315.082 638.713,318.214 642.640 C 324.705 650.778,329.840 655.323,335.250 657.722 C 337.313 658.637,339.000 659.710,339.000 660.107 C 339.000 660.505,341.199 662.444,343.887 664.417 C 348.967 668.146,355.000 670.159,355.000 668.125 C 355.000 667.506,353.883 667.000,352.518 667.000 C 351.012 667.000,348.555 665.558,346.268 663.333 C 344.196 661.316,340.025 658.094,337.000 656.174 C 330.990 652.357,326.000 647.679,326.000 645.862 C 326.000 644.313,319.950 636.784,313.165 629.889 C 307.774 624.411,305.400 619.332,303.397 609.000 C 303.131 607.625,301.082 600.650,298.844 593.500 C 296.606 586.350,294.375 579.118,293.887 577.429 C 292.711 573.358,292.757 567.268,293.969 566.519 C 295.330 565.678,294.290 540.102,292.322 526.000 C 291.439 519.675,290.521 512.250,290.282 509.500 C 289.902 505.135,286.762 496.445,285.043 495.000 C 282.700 493.030,277.824 485.626,277.622 483.731 C 277.486 482.457,277.117 480.984,276.803 480.458 C 276.488 479.931,275.897 477.485,275.489 475.023 C 274.801 470.871,274.872 470.649,276.459 471.966 C 277.401 472.747,278.856 475.100,279.694 477.193 C 280.532 479.287,281.618 481.000,282.109 481.000 C 284.289 481.000,282.359 472.179,279.490 469.027 C 272.569 461.426,272.000 460.538,272.000 457.352 C 272.000 455.508,271.550 454.000,271.000 454.000 C 270.450 454.000,269.683 453.887,269.295 453.750 C 268.908 453.613,268.716 455.863,268.870 458.750 C 269.031 461.791,268.725 464.000,268.142 464.000 C 266.475 464.000,265.888 460.521,266.392 453.629 C 266.776 448.368,266.520 446.657,265.070 444.801 C 262.999 442.151,260.440 433.757,259.491 426.500 C 259.132 423.750,258.000 417.900,256.975 413.500 C 255.951 409.100,254.837 403.787,254.500 401.694 C 254.164 399.601,253.014 397.014,251.944 395.944 C 250.708 394.708,250.000 392.631,250.000 390.241 C 250.000 387.542,249.425 386.122,247.964 385.209 C 246.269 384.151,245.952 382.980,246.071 378.219 C 246.242 371.342,244.324 346.990,243.549 346.216 C 243.247 345.914,243.000 348.018,243.000 350.892 C 243.000 354.121,242.618 355.882,242.000 355.500 C 241.450 355.160,241.000 351.313,241.000 346.951 C 241.000 339.191,240.903 338.877,236.500 332.447 C 232.183 326.141,231.214 324.000,232.677 324.000 C 233.050 324.000,234.512 325.387,235.927 327.082 C 238.065 329.643,239.092 330.105,242.000 329.815 L 245.500 329.466 241.500 327.479 C 238.699 326.088,237.396 324.744,237.154 322.996 C 236.964 321.623,236.358 319.951,235.807 319.280 C 234.541 317.739,236.910 312.000,238.811 312.000 C 239.594 312.000,239.932 311.284,239.640 310.250 C 236.488 299.110,237.648 256.000,241.099 256.000 C 241.560 256.000,241.676 255.319,241.357 254.487 C 241.037 253.655,241.298 252.345,241.937 251.576 C 242.811 250.522,242.813 250.003,241.945 249.466 C 240.169 248.369,241.755 236.930,245.104 226.682 C 246.697 221.808,248.000 216.917,248.000 215.814 C 248.000 214.711,248.646 212.614,249.435 211.154 C 250.224 209.694,251.635 206.363,252.571 203.750 C 254.329 198.841,256.000 197.500,256.000 201.000 C 256.000 202.100,256.450 203.000,257.000 203.000 C 258.323 203.000,258.284 199.684,256.945 198.345 C 255.516 196.916,263.703 184.946,267.304 183.199 C 268.778 182.484,270.513 180.909,271.159 179.699 C 273.518 175.282,296.557 153.368,304.486 148.000 C 306.516 146.625,309.600 144.344,311.339 142.931 C 316.139 139.031,328.419 132.284,332.169 131.486 C 334.001 131.096,336.175 130.265,337.000 129.639 C 340.740 126.800,343.270 125.819,343.962 126.939 C 344.442 127.715,345.406 127.763,347.078 127.095 C 348.410 126.562,349.062 126.098,348.527 126.063 C 345.861 125.890,353.032 122.562,359.333 121.050 C 367.640 119.056,371.284 118.732,370.463 120.061 C 370.143 120.577,370.557 121.000,371.382 121.000 C 372.207 121.000,373.160 120.550,373.500 120.000 C 374.267 118.759,386.675 118.666,387.435 119.895 C 387.740 120.388,387.252 121.073,386.351 121.419 C 385.451 121.764,384.930 122.263,385.195 122.528 C 385.459 122.792,387.185 122.256,389.030 121.335 C 392.239 119.734,392.551 119.753,396.247 121.778 C 398.372 122.942,400.748 123.650,401.527 123.351 C 402.942 122.808,415.612 126.475,417.500 127.975 C 418.050 128.412,419.995 129.089,421.822 129.480 C 427.316 130.655,448.329 141.326,452.647 145.133 C 453.666 146.032,456.392 147.718,458.705 148.881 C 461.018 150.044,464.804 152.796,467.118 154.998 C 469.432 157.199,471.457 159.000,471.618 159.000 C 474.758 159.000,497.000 181.371,497.000 184.529 C 497.000 184.810,498.125 186.822,499.500 189.000 C 500.875 191.178,502.000 193.584,502.000 194.347 C 502.000 195.109,502.864 197.931,503.921 200.617 C 504.977 203.302,507.267 210.225,509.009 216.000 C 510.751 221.775,512.845 228.605,513.662 231.177 C 514.846 234.903,514.904 236.311,513.948 238.098 C 512.972 239.921,513.023 240.544,514.220 241.421 C 516.147 242.833,519.000 248.400,519.000 250.750 C 519.000 251.768,519.394 253.028,519.875 253.550 C 520.357 254.072,521.511 259.000,522.440 264.500 C 523.369 270.000,524.615 275.763,525.209 277.306 C 525.851 278.975,525.923 280.477,525.386 281.014 C 524.103 282.297,522.635 280.981,521.469 277.500 C 520.676 275.134,519.799 274.435,517.317 274.193 C 514.928 273.960,514.024 274.349,513.560 275.811 C 512.696 278.533,514.626 283.000,516.666 283.000 C 518.245 283.000,518.238 282.895,516.582 281.684 C 514.445 280.121,514.827 276.657,517.187 276.203 C 518.274 275.993,519.436 277.116,520.539 279.441 C 521.478 281.421,522.968 283.000,523.895 283.000 C 526.666 283.000,528.109 288.423,526.502 292.798 C 525.475 295.592,525.124 295.948,525.070 294.250 C 525.030 292.963,524.367 292.000,523.521 292.000 C 522.307 292.000,522.247 292.447,523.182 294.500 C 524.071 296.451,524.012 297.604,522.913 299.750 C 522.139 301.262,521.504 305.200,521.503 308.500 C 521.500 313.746,521.220 314.623,519.269 315.479 C 516.375 316.749,515.859 318.269,516.649 323.205 C 517.277 327.137,517.331 327.184,518.558 324.892 C 519.430 323.262,519.516 321.964,518.835 320.692 C 518.053 319.230,518.255 318.746,519.818 318.337 C 521.209 317.974,522.258 316.143,523.393 312.096 C 524.277 308.946,525.000 305.380,525.000 304.171 C 525.000 302.962,525.423 301.191,525.940 300.236 C 526.458 299.281,527.644 296.363,528.576 293.750 C 530.367 288.734,532.090 287.883,535.461 290.348 C 537.766 292.033,537.113 297.399,533.710 304.743 C 531.619 309.258,531.500 310.319,532.410 316.356 C 533.632 324.463,535.554 325.368,534.617 317.395 C 534.019 312.307,534.237 311.336,536.979 306.880 C 539.266 303.163,540.000 300.774,540.000 297.050 C 540.000 289.124,538.827 287.173,533.844 286.810 L 529.593 286.500 527.384 273.000 C 525.064 258.824,523.508 252.351,520.077 242.593 C 518.935 239.345,518.000 235.815,518.000 234.749 C 518.000 233.683,517.074 229.591,515.942 225.655 C 514.810 221.720,513.201 216.025,512.367 213.000 C 510.097 204.769,505.208 192.375,501.134 184.523 C 491.876 166.680,455.258 138.376,427.500 127.610 C 423.650 126.117,419.600 124.521,418.500 124.064 C 417.400 123.606,413.800 122.447,410.500 121.488 C 407.200 120.529,402.700 119.144,400.500 118.411 C 391.675 115.471,374.335 114.384,362.962 116.059 M267.315 298.811 C 265.256 299.104,265.112 299.710,264.815 309.311 C 264.557 317.660,264.835 320.177,266.355 323.250 C 268.204 326.990,271.000 328.345,271.000 325.500 C 271.000 324.675,270.598 324.000,270.107 324.000 C 269.616 324.000,268.959 323.337,268.648 322.526 C 268.181 321.309,269.343 321.056,275.291 321.077 C 279.256 321.091,283.948 321.560,285.717 322.118 C 288.077 322.863,291.141 322.723,297.217 321.593 C 312.886 318.679,326.217 318.686,339.250 321.615 C 341.325 322.081,342.000 321.856,342.000 320.697 C 342.000 319.737,340.080 318.523,336.881 317.460 C 329.243 314.923,323.669 314.564,305.500 315.434 C 285.616 316.386,282.298 316.685,277.378 317.972 C 272.237 319.317,269.000 318.954,269.000 317.031 C 269.000 316.464,270.125 316.000,271.500 316.000 C 272.875 316.000,274.000 315.548,274.000 314.996 C 274.000 314.444,272.538 314.107,270.750 314.246 L 267.500 314.500 267.714 310.002 C 267.832 307.527,268.439 304.549,269.063 303.383 C 270.656 300.406,269.905 298.442,267.315 298.811 M419.000 302.146 C 417.075 303.191,414.514 303.809,413.307 303.518 C 409.763 302.665,406.129 305.022,403.802 309.682 C 401.060 315.172,402.064 316.507,408.154 315.465 C 411.434 314.904,412.026 314.553,410.566 314.033 C 407.376 312.898,410.459 311.890,414.934 312.605 C 417.539 313.022,419.512 312.820,420.451 312.041 C 421.255 311.374,422.450 311.160,423.108 311.567 C 425.198 312.859,437.231 311.948,444.772 309.927 C 448.778 308.854,453.055 308.211,454.277 308.500 C 455.500 308.788,458.975 308.603,462.000 308.088 C 466.686 307.291,467.686 307.400,468.757 308.826 C 472.491 313.799,474.598 316.000,475.622 316.000 C 476.252 316.000,477.075 317.012,477.451 318.250 C 477.954 319.907,478.288 320.117,478.718 319.048 C 479.084 318.137,477.754 316.263,475.151 314.020 C 472.868 312.054,470.998 310.008,470.995 309.473 C 470.987 307.677,464.919 302.000,463.008 302.000 C 461.969 302.000,460.840 301.550,460.500 301.000 C 460.160 300.450,459.203 300.000,458.373 300.000 C 457.167 300.000,457.294 300.604,459.003 303.004 C 460.801 305.529,460.904 306.100,459.648 306.581 C 458.827 306.897,457.244 306.244,456.132 305.132 C 454.439 303.439,453.569 303.263,450.811 304.054 C 448.997 304.574,446.480 305.000,445.216 305.000 C 443.953 305.000,441.596 305.978,439.980 307.173 C 437.220 309.213,436.927 309.244,435.191 307.673 C 434.175 306.753,432.643 306.000,431.788 306.000 C 430.933 306.000,429.998 305.100,429.710 304.000 C 429.397 302.803,428.346 302.000,427.094 302.000 C 425.942 302.000,425.000 301.550,425.000 301.000 C 425.000 299.578,423.040 299.952,419.000 302.146 M431.500 318.002 C 419.288 319.838,413.645 322.985,408.956 330.572 C 405.230 336.600,407.451 336.584,413.166 330.540 C 416.210 327.321,419.556 324.597,420.600 324.485 C 421.645 324.374,423.767 323.769,425.315 323.141 C 429.317 321.519,429.398 321.621,427.082 325.368 C 425.937 327.220,425.000 329.980,425.000 331.500 C 425.000 333.020,425.937 335.780,427.082 337.632 C 429.134 340.954,429.263 341.000,436.394 341.000 C 443.356 341.000,443.711 340.882,445.970 337.826 C 447.539 335.704,448.347 333.193,448.408 330.245 C 448.487 326.472,448.030 325.417,445.234 322.919 C 440.267 318.479,443.609 319.425,452.516 324.978 C 456.907 327.716,461.400 329.982,462.500 330.013 C 463.600 330.045,465.625 330.714,467.000 331.500 C 468.375 332.286,471.300 332.931,473.500 332.933 C 477.037 332.936,477.298 332.783,475.750 331.608 C 474.788 330.877,474.000 329.962,474.000 329.573 C 474.000 327.594,468.432 322.009,464.119 319.661 C 459.585 317.193,458.403 317.009,447.865 317.125 C 441.614 317.193,434.250 317.588,431.500 318.002 M442.311 325.069 C 446.955 326.359,447.057 329.209,442.488 330.006 L 439.500 330.526 441.842 332.172 L 444.183 333.817 442.092 335.908 C 439.349 338.651,433.698 338.698,431.000 336.000 C 428.606 333.606,428.466 330.933,430.526 326.950 C 432.232 323.651,435.388 323.147,442.311 325.069 M305.500 328.004 C 293.861 330.198,287.358 332.431,284.317 335.280 C 281.015 338.374,278.264 343.597,279.359 344.693 C 280.190 345.523,284.000 342.038,284.000 340.449 C 284.000 338.796,290.668 333.000,292.570 333.000 C 294.492 333.000,293.220 335.531,289.592 338.924 C 288.166 340.258,287.000 341.720,287.000 342.174 C 287.000 344.206,290.470 342.646,294.793 338.672 C 300.874 333.081,303.998 331.000,306.311 331.000 C 307.977 331.000,307.899 331.331,305.589 334.077 C 301.753 338.635,302.291 343.251,307.299 348.750 C 311.404 353.257,322.392 351.010,325.483 345.033 C 327.741 340.667,327.366 336.992,324.341 333.834 C 320.832 330.172,323.005 329.199,328.471 331.985 C 330.645 333.093,332.922 334.000,333.531 334.000 C 334.141 334.000,336.519 335.608,338.816 337.574 C 341.225 339.637,343.733 340.972,344.746 340.732 C 346.158 340.396,345.986 340.102,343.868 339.227 C 342.420 338.628,340.214 336.706,338.967 334.954 C 335.211 329.679,328.024 326.999,318.000 327.135 C 313.325 327.198,307.700 327.590,305.500 328.004 M319.656 334.551 C 323.163 337.226,324.081 340.000,321.458 340.000 C 320.610 340.000,318.943 339.093,317.753 337.985 C 314.960 335.382,313.500 335.931,313.500 339.583 C 313.500 341.889,313.895 342.432,315.384 342.175 C 316.421 341.997,318.446 342.147,319.884 342.510 L 322.500 343.169 320.139 345.084 C 318.740 346.220,316.235 347.000,313.987 347.000 C 310.634 347.000,310.069 346.636,309.098 343.851 C 307.374 338.905,307.780 336.318,310.635 334.073 C 314.061 331.377,315.602 331.459,319.656 334.551 M518.751 334.750 C 518.476 336.262,518.384 343.076,518.547 349.891 C 518.710 356.707,518.466 363.273,518.006 364.483 C 517.546 365.694,516.425 372.042,515.515 378.592 C 514.605 385.141,513.479 392.075,513.012 394.000 C 511.190 401.514,508.992 416.944,508.461 425.956 C 508.154 431.157,507.453 435.954,506.903 436.617 C 506.262 437.389,506.251 438.037,506.871 438.421 C 508.254 439.275,512.000 434.165,512.000 431.424 C 512.000 430.156,512.480 428.821,513.067 428.459 C 515.037 427.241,515.371 428.999,513.797 432.299 C 512.939 434.099,511.456 438.931,510.502 443.036 C 505.855 463.031,504.835 466.554,503.150 468.453 C 502.151 469.579,500.546 472.637,499.584 475.250 C 497.861 479.928,496.720 480.973,495.496 478.994 C 494.632 477.596,497.014 470.953,499.329 468.303 C 501.101 466.275,501.124 465.981,499.624 464.482 C 497.395 462.252,497.586 461.108,500.364 460.052 C 503.344 458.919,504.217 456.701,502.972 453.426 C 501.610 449.843,501.759 448.694,503.500 449.362 C 504.371 449.696,505.000 449.378,505.000 448.603 C 505.000 447.870,505.958 446.052,507.129 444.564 C 510.287 440.549,508.085 439.235,504.433 442.956 C 501.010 446.444,500.203 446.615,498.349 444.250 C 497.144 442.712,496.989 443.165,497.074 448.000 C 497.128 451.025,496.936 454.625,496.649 456.000 C 495.642 460.823,493.821 467.519,492.977 469.500 C 492.509 470.600,491.863 472.400,491.542 473.500 C 491.221 474.600,489.476 476.596,487.666 477.937 C 485.855 479.277,483.277 481.852,481.937 483.659 C 479.392 487.091,477.610 487.796,476.407 485.849 C 475.996 485.185,476.817 483.880,478.348 482.765 C 479.806 481.703,481.000 480.196,481.000 479.417 C 481.000 477.500,479.085 477.615,478.332 479.577 C 477.999 480.444,476.613 481.577,475.252 482.094 C 472.808 483.023,472.691 483.888,474.440 488.110 C 474.855 489.112,474.152 490.855,472.577 492.727 C 470.301 495.431,470.069 496.491,470.273 503.253 C 470.464 509.565,470.179 511.129,468.500 512.994 C 467.400 514.216,466.640 516.064,466.812 517.101 C 467.013 518.318,466.247 519.386,464.653 520.112 C 463.294 520.731,460.759 523.434,459.020 526.119 C 457.280 528.803,455.241 531.000,454.488 531.000 C 452.699 531.000,451.457 528.959,452.746 528.138 C 453.298 527.787,454.071 526.016,454.464 524.202 C 455.025 521.618,455.466 521.141,456.501 522.001 C 458.670 523.801,459.457 521.162,457.422 518.913 C 455.096 516.344,456.797 514.232,459.721 516.058 C 461.258 517.017,462.088 517.019,463.589 516.064 C 465.086 515.112,465.129 514.964,463.786 515.379 C 461.981 515.938,458.552 512.067,457.867 508.697 C 457.021 504.537,455.500 507.454,455.500 513.236 C 455.500 518.083,455.153 519.539,453.945 519.772 C 452.006 520.146,448.546 529.994,449.404 532.698 C 450.126 534.973,446.700 540.000,444.427 540.000 C 443.642 540.000,443.000 540.402,443.000 540.893 C 443.000 541.384,442.325 542.045,441.500 542.362 C 440.410 542.780,440.000 542.245,440.000 540.401 C 440.000 538.320,440.359 537.979,442.000 538.500 C 443.572 538.999,444.000 538.680,444.000 537.007 C 444.000 535.160,443.506 534.920,440.250 535.190 L 436.500 535.500 436.736 540.187 C 436.933 544.102,436.645 544.978,434.985 545.505 C 433.892 545.852,432.533 547.005,431.964 548.068 C 430.426 550.941,429.302 550.422,428.566 546.500 C 427.470 540.658,423.000 542.151,423.000 548.359 C 423.000 551.415,420.270 555.000,417.943 555.000 C 416.874 555.000,416.000 554.550,416.000 554.000 C 416.000 552.329,413.982 552.883,413.267 554.750 C 412.425 556.950,408.935 559.923,407.143 559.967 C 406.250 559.989,406.023 559.402,406.478 558.250 C 406.859 557.288,407.417 555.028,407.719 553.230 C 408.178 550.496,408.001 550.063,406.634 550.587 C 405.735 550.932,405.000 552.236,405.000 553.485 C 405.000 554.733,404.325 556.315,403.500 557.000 C 402.675 557.685,402.000 559.015,402.000 559.956 C 402.000 560.897,401.731 561.936,401.402 562.264 C 400.299 563.368,398.000 561.805,398.000 559.952 C 398.000 556.931,396.161 556.746,395.818 559.733 C 395.590 561.719,394.865 562.590,393.250 562.820 C 390.929 563.149,390.016 560.726,392.000 559.500 C 392.550 559.160,393.000 558.156,393.000 557.270 C 393.000 556.383,393.625 554.947,394.389 554.079 C 395.152 553.210,396.088 551.038,396.468 549.250 C 397.013 546.688,396.832 546.000,395.615 546.000 C 393.617 546.000,392.521 548.154,390.855 555.353 C 389.743 560.157,388.962 561.496,386.500 562.821 C 382.459 564.995,379.025 565.228,378.314 563.375 C 377.858 562.188,376.308 561.931,371.117 562.181 C 367.172 562.371,364.488 562.096,364.470 561.500 C 364.454 560.950,365.063 560.643,365.823 560.817 C 366.584 560.992,367.885 560.874,368.716 560.556 C 369.911 560.097,369.976 559.676,369.027 558.532 C 368.367 557.738,368.113 556.626,368.462 556.061 C 369.366 554.599,367.961 547.906,366.890 548.568 C 366.401 548.870,366.000 551.401,366.000 554.191 L 366.000 559.263 361.750 558.701 C 358.115 558.220,357.753 558.325,359.250 559.429 C 361.776 561.293,361.405 562.179,358.250 561.816 C 356.546 561.620,355.123 560.640,354.509 559.241 C 353.964 557.998,352.726 556.731,351.759 556.423 C 350.792 556.116,350.000 555.086,350.000 554.133 C 350.000 553.180,349.582 551.972,349.071 551.450 C 348.561 550.928,347.958 548.925,347.731 547.000 C 347.366 543.889,347.302 544.006,347.160 548.050 C 347.072 550.552,347.540 553.140,348.200 553.800 C 351.523 557.123,338.489 551.573,334.500 547.966 C 332.850 546.474,330.262 544.963,328.750 544.608 C 326.893 544.172,326.000 543.319,326.000 541.981 C 326.000 539.692,326.034 539.682,329.435 540.975 C 332.520 542.148,332.954 540.581,329.985 538.992 C 328.824 538.370,327.464 536.024,326.777 533.457 C 325.534 528.809,323.723 527.350,324.039 531.250 C 324.437 536.163,323.950 541.000,323.058 541.000 C 322.540 541.000,321.514 538.869,320.779 536.265 C 319.884 533.096,318.655 531.138,317.064 530.345 C 315.756 529.693,314.090 527.742,313.362 526.009 C 311.798 522.290,310.000 522.876,310.000 527.104 C 310.000 530.046,313.736 535.000,315.955 535.000 C 316.530 535.000,317.000 535.695,317.000 536.545 C 317.000 537.395,318.012 539.104,319.250 540.343 C 320.488 541.582,322.053 543.811,322.729 545.298 C 323.404 546.784,324.712 548.000,325.634 548.000 C 326.557 548.000,328.877 549.195,330.792 550.655 C 334.918 553.802,342.941 557.990,344.855 557.996 C 345.600 557.998,348.264 559.386,350.773 561.080 C 355.660 564.378,362.616 565.984,372.050 565.994 C 375.102 565.997,378.031 566.431,378.559 566.959 C 379.170 567.570,382.411 567.358,387.509 566.373 C 391.904 565.524,397.656 564.891,400.291 564.967 C 403.780 565.068,406.868 564.262,411.655 562.000 C 415.270 560.292,418.465 559.132,418.754 559.421 C 419.044 559.710,420.455 559.335,421.890 558.586 C 423.326 557.838,425.625 556.728,427.000 556.120 C 429.966 554.809,432.266 553.390,436.996 549.956 C 441.255 546.864,445.860 544.796,446.965 545.478 C 447.413 545.755,449.292 543.992,451.140 541.559 C 452.988 539.126,455.512 536.664,456.750 536.089 C 457.988 535.514,459.000 534.567,459.000 533.986 C 459.000 533.405,461.025 532.061,463.500 531.000 C 465.975 529.939,468.000 528.403,468.000 527.586 C 468.000 525.107,473.981 517.061,476.974 515.514 C 478.519 514.715,480.265 512.680,480.853 510.992 C 481.441 509.304,483.228 506.618,484.824 505.022 C 486.420 503.426,489.322 499.731,491.272 496.810 C 493.223 493.890,496.227 489.938,497.946 488.029 C 499.666 486.120,501.324 483.420,501.631 482.029 C 502.765 476.894,505.385 470.442,507.137 468.467 C 508.130 467.348,509.679 463.298,510.580 459.467 C 511.482 455.635,513.562 447.462,515.203 441.305 C 517.585 432.366,518.083 428.802,517.673 423.617 C 517.352 419.567,517.669 415.426,518.516 412.615 C 519.380 409.741,519.838 403.464,519.779 395.303 C 519.727 388.261,520.248 377.388,520.935 371.140 C 521.682 364.360,521.959 354.483,521.625 346.640 C 521.316 339.413,521.049 333.163,521.032 332.750 C 520.948 330.781,519.192 332.322,518.751 334.750 M354.607 337.582 C 354.273 338.452,354.000 340.477,354.000 342.082 C 354.000 343.687,353.550 345.000,353.000 345.000 C 352.450 345.000,352.000 344.100,352.000 343.000 C 352.000 341.900,351.625 341.000,351.167 341.000 C 349.512 341.000,349.140 342.252,350.261 344.046 C 351.132 345.442,351.095 346.454,350.103 348.307 C 348.420 351.452,349.050 354.590,351.286 354.206 C 352.229 354.045,353.063 354.495,353.140 355.206 C 353.946 362.631,354.257 370.612,354.166 381.500 C 354.062 394.031,354.111 394.358,355.540 390.567 C 356.407 388.267,356.788 385.153,356.459 383.067 C 355.929 379.704,355.974 379.631,357.250 381.781 C 357.995 383.036,358.918 383.749,359.302 383.365 C 360.563 382.103,359.944 370.584,358.395 366.500 C 356.693 362.012,356.540 350.335,358.129 346.170 C 358.854 344.270,358.792 342.419,357.914 339.750 C 356.589 335.722,355.575 335.058,354.607 337.582 M405.000 347.345 C 405.000 350.442,412.946 356.702,421.000 359.952 C 424.025 361.173,427.281 362.583,428.236 363.086 C 430.726 364.397,433.000 364.213,433.000 362.700 C 433.000 360.825,430.898 359.000,428.738 359.000 C 425.533 359.000,415.769 353.834,415.255 351.867 C 414.986 350.840,413.919 350.000,412.883 350.000 C 411.848 350.000,411.000 349.550,411.000 349.000 C 411.000 348.450,410.190 348.000,409.200 348.000 C 408.210 348.000,406.860 347.460,406.200 346.800 C 405.267 345.867,405.000 345.988,405.000 347.345 M259.574 378.331 C 259.854 379.063,259.633 381.676,259.081 384.137 C 258.336 387.462,258.430 389.945,259.447 393.800 C 260.200 396.653,260.601 399.810,260.338 400.814 C 260.076 401.818,260.567 403.226,261.430 403.942 C 262.294 404.659,263.000 405.810,263.000 406.500 C 263.000 407.190,263.675 408.315,264.500 409.000 C 265.325 409.685,266.000 411.690,266.000 413.456 C 266.000 418.966,268.196 428.000,269.536 428.000 C 270.498 428.000,270.368 426.288,268.984 420.750 C 266.123 409.299,265.604 404.863,267.023 403.986 C 267.905 403.441,267.676 403.032,266.232 402.573 C 263.712 401.774,262.905 398.737,262.491 388.500 C 262.159 380.271,261.429 377.000,259.924 377.000 C 259.451 377.000,259.293 377.599,259.574 378.331 M344.850 387.000 C 344.275 388.650,343.215 390.000,342.495 390.000 C 341.775 390.000,339.394 392.140,337.204 394.756 C 333.517 399.160,333.215 399.983,333.133 405.848 C 333.036 412.715,334.300 416.089,338.405 419.924 C 340.637 422.010,341.000 422.102,341.000 420.582 C 341.000 419.610,340.100 417.671,339.000 416.273 C 335.507 411.832,336.156 409.164,345.376 390.063 C 348.384 383.830,348.340 384.000,346.948 384.000 C 346.369 384.000,345.425 385.350,344.850 387.000 M411.000 387.450 C 411.000 388.248,411.587 389.260,412.305 389.700 C 414.023 390.753,418.000 397.350,418.000 399.147 C 418.000 399.923,420.462 402.876,423.472 405.709 C 426.482 408.542,429.745 412.176,430.723 413.785 C 431.701 415.394,433.899 417.886,435.608 419.323 C 437.996 421.333,439.009 423.331,439.995 427.976 C 441.037 432.885,441.532 433.804,442.638 432.885 C 444.278 431.524,444.409 428.809,442.906 427.306 C 442.305 426.705,441.967 425.468,442.156 424.559 C 442.426 423.261,443.769 423.939,448.386 427.702 C 455.102 433.177,459.544 439.049,460.487 443.698 C 461.099 446.712,460.977 446.884,458.357 446.698 C 456.363 446.556,455.471 447.022,455.197 448.347 C 454.893 449.822,455.237 450.060,456.908 449.529 C 459.440 448.725,459.722 450.692,457.486 453.559 C 456.653 454.626,456.031 455.050,456.104 454.500 C 456.177 453.950,456.177 452.825,456.103 452.000 C 455.995 450.785,455.808 450.755,455.119 451.842 C 454.409 452.962,453.915 452.964,452.130 451.849 L 449.993 450.514 452.246 448.779 L 454.500 447.044 451.250 447.022 C 448.773 447.005,448.000 446.564,448.000 445.167 C 448.000 442.657,446.939 441.806,445.401 443.082 C 443.933 444.301,444.651 446.934,446.938 448.718 C 447.797 449.388,448.275 449.973,448.000 450.018 C 447.725 450.064,445.559 450.268,443.186 450.473 C 440.813 450.678,436.538 451.618,433.686 452.562 C 430.834 453.506,427.938 454.427,427.250 454.608 C 426.563 454.789,426.000 455.761,426.000 456.769 C 426.000 460.614,420.846 462.646,419.564 459.306 C 419.028 457.909,418.574 458.172,416.972 460.806 C 415.594 463.071,414.279 464.000,412.449 464.000 C 411.030 464.000,409.108 464.407,408.178 464.905 C 405.097 466.554,388.128 469.000,379.772 469.000 C 370.676 469.000,356.078 466.373,354.467 464.446 C 353.898 463.766,350.973 463.009,347.967 462.762 C 340.359 462.139,328.699 458.695,325.392 456.094 C 322.984 454.200,322.514 454.117,321.763 455.459 C 321.289 456.306,319.825 457.000,318.509 457.000 C 317.194 457.000,315.859 457.419,315.543 457.931 C 314.481 459.649,317.092 460.204,320.194 458.919 C 322.802 457.839,323.437 457.877,324.384 459.169 C 324.998 460.007,326.850 461.378,328.500 462.215 C 332.836 464.415,346.810 468.680,351.608 469.268 C 353.868 469.545,357.248 470.498,359.120 471.387 C 361.975 472.742,365.582 472.944,381.512 472.643 C 398.705 472.318,401.211 472.042,408.015 469.728 C 421.883 465.011,428.552 462.152,439.612 456.183 C 443.830 453.906,449.145 453.477,450.481 455.306 C 451.131 456.194,452.864 457.378,454.331 457.936 C 456.029 458.581,457.000 459.699,457.000 461.007 C 457.000 463.432,454.351 464.751,452.733 463.133 C 450.706 461.106,449.737 461.933,450.379 465.143 C 450.744 466.971,450.528 468.864,449.861 469.667 C 448.473 471.340,448.726 471.642,452.252 472.527 C 454.872 473.185,455.000 473.048,455.000 469.577 C 455.000 467.343,455.552 465.725,456.430 465.388 C 457.217 465.087,458.335 463.638,458.916 462.170 C 459.496 460.701,460.379 458.825,460.878 458.000 C 461.376 457.175,462.548 453.859,463.481 450.630 C 466.007 441.893,465.071 438.915,457.257 430.821 C 453.635 427.069,450.081 424.000,449.359 424.000 C 448.637 424.000,447.273 422.820,446.329 421.379 C 444.691 418.880,444.699 418.693,446.497 417.379 C 447.980 416.294,448.055 416.000,446.850 416.000 C 446.008 416.000,443.287 414.087,440.804 411.750 C 433.395 404.774,426.997 399.546,424.937 398.782 C 423.872 398.387,423.000 397.437,423.000 396.669 C 423.000 395.098,413.656 386.000,412.043 386.000 C 411.469 386.000,411.000 386.653,411.000 387.450 M415.904 406.819 C 413.381 411.256,408.456 413.061,400.821 412.348 C 395.783 411.877,393.524 412.132,390.652 413.495 C 386.671 415.384,382.484 420.356,383.496 421.993 C 384.552 423.702,385.931 423.135,389.567 419.500 C 392.221 416.846,393.905 416.000,396.533 416.000 C 398.440 416.000,400.000 416.450,400.000 417.000 C 400.000 418.701,403.689 418.112,409.711 415.449 C 417.210 412.133,419.846 409.646,419.238 406.463 C 418.630 403.282,417.869 403.363,415.904 406.819 M348.200 416.512 C 345.300 417.772,345.033 418.194,345.998 419.996 C 347.008 421.883,347.269 421.925,349.270 420.523 C 350.466 419.685,352.221 419.000,353.170 419.000 C 355.429 419.000,363.108 423.108,365.706 425.706 C 366.830 426.830,368.369 428.002,369.125 428.311 C 370.172 428.738,369.964 429.342,368.250 430.846 C 367.012 431.932,366.000 433.908,366.000 435.236 C 366.000 438.190,370.563 442.837,372.026 441.374 C 372.693 440.707,372.189 439.586,370.513 438.012 C 369.131 436.714,368.000 434.940,368.000 434.070 C 368.000 431.942,372.970 429.868,377.362 430.164 C 379.324 430.296,381.234 430.099,381.607 429.726 C 383.063 428.271,379.611 426.000,375.943 426.000 C 370.700 426.000,367.118 424.478,363.000 420.500 C 359.673 417.287,355.267 414.954,352.685 415.039 C 352.033 415.061,350.015 415.723,348.200 416.512 M389.516 432.973 C 389.186 433.509,389.834 434.734,390.957 435.696 C 393.462 437.840,393.567 439.557,391.250 440.493 C 389.695 441.121,389.751 441.297,391.750 442.068 C 393.398 442.703,394.000 443.747,394.000 445.968 C 394.000 449.655,393.775 449.684,390.505 446.414 C 388.998 444.907,388.132 443.135,388.429 442.164 C 388.710 441.249,388.123 439.435,387.127 438.133 C 385.766 436.355,384.763 435.940,383.100 436.468 C 380.831 437.188,380.532 440.725,382.780 440.260 C 384.533 439.897,386.433 443.967,385.123 445.277 C 384.374 446.026,383.776 445.627,383.094 443.920 C 382.562 442.589,382.036 441.950,381.924 442.500 C 381.475 444.715,381.533 452.005,382.000 452.129 C 384.401 452.766,396.827 452.518,398.000 451.810 C 399.089 451.153,398.906 451.066,397.334 451.493 C 394.405 452.289,393.869 451.036,395.235 446.585 C 396.239 443.316,396.707 442.902,398.922 443.325 L 401.460 443.811 398.730 441.822 C 397.229 440.728,396.000 438.971,396.000 437.917 C 396.000 435.934,392.715 432.000,391.059 432.000 C 390.541 432.000,389.847 432.438,389.516 432.973 M304.250 448.662 C 302.453 449.387,302.766 455.634,304.910 461.842 C 307.104 468.196,308.500 469.727,312.500 470.169 C 315.235 470.471,315.528 470.213,315.813 467.250 C 316.114 464.136,314.809 462.882,313.490 465.016 C 312.516 466.592,311.131 465.214,311.659 463.196 C 311.953 462.070,310.784 459.923,308.543 457.477 C 306.569 455.323,305.190 452.984,305.477 452.280 C 305.765 451.576,306.273 450.325,306.607 449.500 C 307.220 447.984,306.534 447.741,304.250 448.662 M479.761 455.250 C 476.451 459.594,472.993 466.878,473.958 467.474 C 474.867 468.036,477.426 465.261,478.317 462.750 C 478.658 461.788,479.428 461.000,480.028 461.000 C 480.627 461.000,480.862 461.414,480.550 461.919 C 480.237 462.425,480.667 463.524,481.505 464.362 C 482.869 465.726,482.869 465.974,481.505 466.737 C 480.324 467.398,480.126 468.637,480.622 472.260 C 481.157 476.161,481.529 476.787,482.881 476.063 C 486.948 473.884,489.308 457.486,486.110 453.632 C 484.107 451.219,482.525 451.623,479.761 455.250 M412.500 456.023 C 408.650 456.443,403.973 457.272,402.108 457.864 C 400.242 458.457,398.311 458.692,397.818 458.387 C 396.433 457.532,382.597 460.104,381.750 461.374 C 381.208 462.187,380.769 462.143,380.169 461.215 C 378.904 459.257,372.633 458.533,371.261 460.186 C 369.323 462.521,371.418 464.113,376.596 464.241 C 385.993 464.474,392.880 463.756,393.364 462.493 C 393.636 461.785,394.868 461.443,396.216 461.701 C 399.157 462.263,414.859 459.362,416.573 457.940 C 417.263 457.366,418.880 457.033,420.164 457.199 C 421.449 457.364,422.725 457.050,423.000 456.500 C 423.649 455.201,421.096 455.085,412.500 456.023 M416.500 476.504 C 409.827 482.224,404.719 484.342,397.277 484.475 C 393.530 484.542,390.479 485.063,390.277 485.670 C 389.257 488.728,402.952 487.877,410.500 484.413 C 416.107 481.840,419.159 479.441,420.853 476.274 C 423.222 471.848,421.846 471.921,416.500 476.504 M496.000 482.323 C 496.000 482.859,493.975 485.757,491.500 488.764 C 489.025 491.770,487.000 494.775,487.000 495.441 C 487.000 496.876,483.215 500.450,480.791 501.304 C 479.851 501.635,478.697 503.389,478.228 505.201 C 477.758 507.014,476.727 508.621,475.937 508.773 C 474.098 509.126,473.991 500.921,475.805 498.735 C 476.481 497.920,476.786 496.605,476.481 495.812 C 475.940 494.401,480.191 488.890,481.724 489.016 C 482.151 489.051,482.639 488.202,482.808 487.129 C 482.977 486.056,484.639 484.135,486.502 482.858 C 488.364 481.582,490.120 479.648,490.405 478.559 C 490.905 476.649,491.012 476.663,493.461 478.964 C 494.858 480.275,496.000 481.787,496.000 482.323 M512.648 495.197 C 513.335 507.450,516.038 527.915,517.577 532.516 C 518.316 534.724,519.162 539.852,519.458 543.911 C 519.754 547.970,520.494 551.890,521.102 552.623 C 522.547 554.364,521.293 567.475,519.311 571.340 C 518.510 572.902,518.161 574.927,518.535 575.840 C 519.785 578.891,518.983 604.328,517.383 612.374 L 515.818 620.249 503.159 633.042 C 496.196 640.078,488.250 648.420,485.500 651.581 C 482.750 654.742,478.587 659.338,476.250 661.796 C 473.913 664.253,472.000 666.654,472.000 667.132 C 472.000 667.609,471.550 668.000,471.000 668.000 C 470.450 668.000,470.000 668.900,470.000 670.000 C 470.000 671.325,469.333 672.000,468.026 672.000 C 466.865 672.000,465.442 673.178,464.573 674.859 C 463.760 676.432,461.717 678.289,460.034 678.986 C 458.233 679.732,456.728 681.236,456.375 682.642 C 456.045 683.956,454.777 685.817,453.558 686.776 C 452.338 687.735,451.505 689.016,451.708 689.623 C 452.181 691.042,444.391 700.928,442.181 701.713 C 438.797 702.916,438.069 704.051,439.042 706.611 C 439.594 708.063,439.612 709.767,439.085 710.783 C 438.596 711.727,437.618 714.445,436.914 716.822 C 436.209 719.199,434.598 722.124,433.333 723.322 C 431.796 724.778,431.029 726.662,431.017 729.007 C 430.995 733.574,429.372 739.146,427.768 740.164 C 425.753 741.443,423.737 741.128,424.314 739.624 C 424.910 738.071,420.395 735.552,419.529 736.954 C 418.444 738.709,420.964 742.953,423.465 743.580 C 426.286 744.289,426.691 746.389,424.803 750.532 C 423.893 752.530,423.050 753.052,421.280 752.713 C 418.491 752.180,417.226 753.564,419.870 754.256 C 422.669 754.988,423.449 759.685,421.298 762.856 C 420.312 764.310,419.407 767.075,419.288 769.000 C 418.721 778.164,418.428 780.004,417.500 780.243 C 416.950 780.384,416.349 779.375,416.165 778.000 C 415.981 776.625,415.419 775.073,414.915 774.550 C 413.397 772.974,413.880 771.265,416.000 770.710 C 418.809 769.976,418.498 768.000,415.573 768.000 C 413.850 768.000,412.691 767.086,411.573 764.846 C 410.708 763.112,410.000 761.138,410.000 760.461 C 410.000 759.783,409.348 757.972,408.551 756.436 C 406.812 753.084,407.303 752.000,410.559 752.000 C 413.081 752.000,413.942 754.300,411.893 755.566 C 411.101 756.055,411.130 756.462,411.993 756.996 C 412.657 757.406,413.504 759.228,413.876 761.046 C 414.868 765.900,417.049 766.141,416.318 761.316 C 416.000 759.217,415.348 757.073,414.870 756.550 C 413.684 755.255,413.770 751.260,415.000 750.500 C 415.550 750.160,416.000 748.580,416.000 746.988 C 416.000 745.396,416.523 742.946,417.162 741.543 C 418.671 738.232,417.406 736.975,415.420 739.810 C 414.554 741.047,412.824 742.000,411.443 742.000 C 409.938 742.000,409.000 742.576,409.000 743.500 C 409.000 744.509,410.009 745.000,412.083 745.000 C 416.317 745.000,415.388 747.153,410.446 748.799 C 406.974 749.955,406.404 749.906,405.272 748.358 C 404.573 747.401,404.000 745.706,404.000 744.592 C 404.000 743.478,403.256 740.618,402.346 738.237 C 400.232 732.700,401.435 730.971,406.161 732.754 C 409.732 734.103,411.000 733.663,411.000 731.077 C 411.000 729.642,410.243 729.295,407.308 729.386 C 403.964 729.489,403.525 729.192,402.660 726.239 C 401.166 721.140,402.723 718.819,407.805 718.573 C 410.130 718.460,412.454 717.946,412.970 717.430 C 413.485 716.915,414.134 712.960,414.410 708.642 L 414.913 700.791 411.707 701.338 C 403.821 702.682,400.701 703.571,400.604 704.500 C 400.547 705.050,401.752 705.644,403.282 705.820 C 405.893 706.119,406.023 706.358,405.397 709.698 C 404.874 712.484,405.030 713.158,406.115 712.801 C 406.877 712.551,407.638 710.806,407.806 708.923 C 408.088 705.764,410.163 703.000,412.252 703.000 C 413.264 703.000,412.173 711.673,410.837 714.250 C 410.226 715.429,408.718 716.010,406.215 716.031 C 401.160 716.074,398.674 719.434,399.162 725.565 C 399.356 728.004,399.185 730.000,398.783 730.000 C 397.689 730.000,395.000 724.390,395.000 722.109 C 395.000 721.014,394.592 719.866,394.094 719.558 C 393.596 719.250,393.423 718.098,393.711 716.999 C 394.068 715.632,393.741 715.000,392.676 715.000 C 390.239 715.000,389.752 716.748,391.354 719.748 C 392.162 721.262,393.565 725.200,394.470 728.500 C 395.376 731.800,396.548 735.293,397.075 736.262 C 397.601 737.231,398.744 740.156,399.615 742.762 C 400.486 745.368,401.750 748.850,402.424 750.500 C 403.920 754.160,406.552 761.555,409.098 769.250 C 410.144 772.413,411.980 777.813,413.177 781.250 C 414.458 784.927,415.384 790.088,415.427 793.787 C 415.493 799.484,415.688 800.048,417.500 799.787 C 419.093 799.559,419.627 798.482,420.122 794.500 C 420.464 791.750,421.249 787.700,421.866 785.500 C 422.484 783.300,422.991 779.378,422.994 776.785 C 422.997 774.192,423.737 769.917,424.637 767.285 C 425.537 764.653,426.907 760.025,427.682 757.000 C 428.456 753.975,429.535 749.754,430.079 747.620 C 430.623 745.487,431.602 742.787,432.254 741.620 C 433.680 739.071,434.771 736.291,438.965 724.513 C 442.082 715.762,446.187 706.029,448.040 703.000 C 448.544 702.175,450.561 698.800,452.521 695.500 C 459.421 683.885,467.508 673.000,469.238 673.000 C 470.265 673.000,474.000 669.211,474.000 668.169 C 474.000 667.712,475.122 666.737,476.493 666.004 C 477.865 665.270,479.663 663.637,480.490 662.374 C 481.317 661.112,484.628 657.249,487.848 653.790 C 491.068 650.330,493.882 647.050,494.101 646.500 C 494.593 645.266,511.320 629.354,515.683 625.970 C 520.715 622.066,522.054 616.773,523.010 597.000 C 523.476 587.375,524.369 576.575,524.994 573.000 C 526.097 566.686,526.722 561.741,529.143 540.154 C 530.148 531.191,530.070 528.599,528.561 520.756 C 525.992 507.404,522.309 496.853,519.395 494.500 C 518.033 493.400,516.375 491.411,515.710 490.079 C 513.140 484.937,512.164 486.569,512.648 495.197 M449.226 494.839 C 448.253 495.456,448.431 496.080,449.976 497.479 C 451.089 498.486,452.000 499.915,452.000 500.655 C 452.000 502.329,448.621 502.405,446.032 500.788 C 443.774 499.378,442.074 500.474,443.817 502.217 C 444.467 502.868,445.000 504.660,445.000 506.200 C 445.000 508.333,444.524 509.000,443.000 509.000 C 441.305 509.000,441.000 509.667,441.000 513.378 C 441.000 515.872,441.592 518.246,442.375 518.896 C 443.315 519.676,443.595 521.414,443.260 524.388 C 442.586 530.366,444.668 531.395,445.549 525.519 C 445.922 523.034,446.633 521.000,447.129 521.000 C 447.626 521.000,447.963 519.763,447.880 518.250 C 447.796 516.737,448.194 514.352,448.763 512.949 C 449.333 511.547,449.578 509.242,449.308 507.829 C 448.894 505.666,449.306 505.089,451.908 504.182 C 455.307 502.997,455.780 501.078,453.750 496.707 C 452.450 493.909,451.385 493.469,449.226 494.839 M362.000 495.943 C 362.000 497.172,366.052 500.000,367.812 500.000 C 369.507 500.000,372.921 503.973,372.968 506.000 C 372.988 506.825,374.762 509.154,376.911 511.177 C 381.351 515.354,383.320 514.886,384.457 509.381 C 385.007 506.718,384.644 505.878,381.966 503.625 C 380.242 502.174,378.382 501.264,377.834 501.603 C 377.286 501.941,375.603 501.035,374.093 499.590 C 370.489 496.137,362.000 493.577,362.000 495.943 M405.000 496.884 C 405.000 497.443,405.739 498.314,406.641 498.819 C 407.832 499.485,408.098 500.472,407.612 502.409 C 406.993 504.878,406.660 505.028,403.221 504.396 C 401.174 504.019,399.253 503.334,398.952 502.873 C 398.650 502.412,396.400 502.375,393.952 502.790 C 389.572 503.533,389.495 503.613,389.193 507.773 C 388.953 511.065,389.230 512.000,390.443 512.000 C 392.014 512.000,392.386 510.999,392.042 507.691 C 391.879 506.124,392.366 505.974,395.677 506.571 C 397.780 506.951,399.950 507.590,400.500 507.993 C 401.050 508.395,402.757 509.025,404.293 509.392 C 406.867 510.007,407.245 509.701,409.107 505.490 C 411.763 499.487,411.342 496.597,407.750 496.184 C 406.238 496.010,405.000 496.325,405.000 496.884 M379.866 538.421 C 379.453 545.100,377.000 547.757,377.000 541.524 C 377.000 539.351,376.597 538.131,376.000 538.500 C 375.450 538.840,375.000 540.009,375.000 541.098 C 375.000 543.053,374.973 543.053,372.811 541.039 C 369.952 538.375,368.864 538.453,369.891 541.250 C 370.346 542.487,371.695 543.646,372.890 543.824 C 374.805 544.109,374.989 544.584,374.444 547.824 C 374.104 549.846,373.592 552.341,373.308 553.368 C 372.956 554.639,373.224 555.091,374.145 554.781 C 374.890 554.530,375.565 553.464,375.644 552.412 C 375.723 551.361,375.835 549.938,375.894 549.250 C 376.065 547.235,378.139 547.816,378.721 550.041 C 379.083 551.424,379.937 551.989,381.366 551.791 C 382.541 551.629,383.483 552.055,383.489 552.750 C 383.495 553.438,383.938 553.888,384.473 553.750 C 385.009 553.612,385.314 552.487,385.152 551.250 C 384.955 549.746,385.378 549.000,386.428 549.000 C 387.293 549.000,388.000 548.550,388.000 548.000 C 388.000 546.689,387.395 546.739,384.956 548.250 C 382.197 549.960,380.944 547.826,381.593 542.522 C 381.864 540.310,381.668 537.150,381.158 535.500 C 380.318 532.780,380.197 533.052,379.866 538.421 M534.000 545.139 C 534.000 548.459,535.937 554.000,537.098 554.000 C 537.594 554.000,538.016 555.237,538.035 556.750 C 538.055 558.263,538.714 560.625,539.500 562.000 C 540.286 563.375,540.945 565.540,540.965 566.812 C 541.004 569.354,543.606 578.492,545.072 581.236 C 545.582 582.191,546.003 584.441,546.008 586.236 C 546.012 588.031,546.898 592.402,547.976 595.949 C 549.055 599.496,550.230 604.353,550.589 606.742 C 551.267 611.267,553.654 612.284,553.313 607.902 C 553.014 604.077,550.377 592.420,549.483 590.973 C 549.035 590.248,548.328 588.044,547.912 586.077 C 546.013 577.101,542.761 565.412,541.923 564.550 C 541.416 564.027,541.000 562.201,541.000 560.491 C 541.000 558.781,540.339 556.509,539.532 555.441 C 538.724 554.374,538.049 552.808,538.032 551.961 C 538.014 551.115,537.100 548.658,536.000 546.500 C 534.208 542.985,534.000 542.843,534.000 545.139 M252.500 601.954 C 249.033 603.388,245.778 607.744,245.002 611.988 C 244.190 616.431,245.976 617.336,247.000 613.000 C 247.563 610.617,250.000 608.924,250.000 610.917 C 250.000 611.513,250.675 612.000,251.500 612.000 C 252.387 612.000,253.003 611.080,253.008 609.750 C 253.013 608.288,253.958 607.062,255.707 606.250 C 259.315 604.574,260.040 604.673,259.387 606.750 C 258.889 608.335,258.979 608.327,260.342 606.663 C 261.794 604.892,261.956 604.908,264.923 607.102 C 267.376 608.914,268.000 610.112,268.000 613.004 C 268.000 626.646,275.011 641.284,286.918 652.500 C 291.821 657.119,294.741 660.200,297.579 663.750 C 299.685 666.384,300.893 667.000,303.955 667.000 C 306.285 667.000,310.461 668.365,314.857 670.565 C 318.775 672.525,322.426 673.855,322.968 673.520 C 325.089 672.209,332.068 675.161,335.421 678.787 C 339.051 682.713,343.988 689.608,344.018 690.794 C 344.028 691.182,345.378 693.480,347.018 695.900 C 348.658 698.321,350.000 701.138,350.000 702.161 C 350.000 706.120,354.085 712.834,357.143 713.900 C 359.900 714.861,363.888 718.546,363.967 720.205 C 364.000 720.909,359.235 726.000,358.542 726.000 C 358.341 726.000,357.872 724.202,357.501 722.005 C 356.901 718.455,355.495 716.165,354.520 717.150 C 354.330 717.342,354.613 719.525,355.150 722.000 C 355.688 724.475,356.488 728.987,356.928 732.026 C 357.369 735.065,358.739 740.321,359.973 743.706 C 362.140 749.649,362.360 749.884,366.359 750.541 C 370.994 751.303,378.907 755.829,378.963 757.750 C 378.984 758.438,379.675 759.000,380.500 759.000 C 381.325 759.000,382.000 759.597,382.000 760.326 C 382.000 762.524,386.373 765.929,390.048 766.592 L 393.500 767.216 390.323 764.125 C 388.576 762.426,386.865 760.015,386.521 758.767 C 384.884 752.824,381.572 747.000,379.829 747.000 C 377.720 747.000,377.478 748.078,379.200 749.800 C 380.133 750.733,380.078 750.993,378.950 750.967 C 376.844 750.918,373.000 747.445,373.000 745.590 C 373.000 744.503,372.084 744.000,370.106 744.000 C 368.292 744.000,366.052 742.917,364.106 741.099 C 359.786 737.064,359.710 731.136,363.923 726.923 C 367.288 723.559,370.797 723.179,374.785 725.750 L 377.500 727.500 375.867 725.000 C 374.660 723.152,373.356 722.500,370.870 722.500 C 368.207 722.500,367.483 722.083,367.400 720.500 C 367.188 716.449,365.785 713.940,362.900 712.448 C 361.273 711.607,359.539 711.167,359.047 711.471 C 357.450 712.458,353.125 705.125,352.281 700.000 C 352.055 698.625,350.999 696.571,349.935 695.436 C 348.871 694.300,347.997 692.950,347.994 692.436 C 347.974 689.081,345.471 683.762,342.445 680.647 C 340.416 678.558,339.499 677.000,340.297 677.000 C 341.063 677.000,342.467 677.858,343.416 678.908 C 344.366 679.957,347.473 681.816,350.321 683.039 C 356.114 685.526,359.015 688.208,360.941 692.856 C 362.657 697.001,364.352 696.930,363.485 692.750 L 362.810 689.500 366.047 692.661 C 369.751 696.278,369.504 699.000,365.472 699.000 C 364.000 699.000,363.149 699.432,363.500 700.000 C 363.840 700.550,365.329 701.017,366.809 701.038 C 368.797 701.066,370.220 702.117,372.259 705.063 C 373.776 707.256,376.138 709.561,377.509 710.186 C 380.272 711.445,380.494 712.208,378.943 715.106 C 378.120 716.644,378.341 717.816,379.943 720.408 C 381.074 722.239,382.000 724.315,382.000 725.024 C 382.000 725.732,383.125 727.786,384.500 729.589 C 385.875 731.392,387.000 733.126,387.000 733.444 C 387.000 734.194,390.753 742.710,392.640 746.244 C 393.671 748.173,393.814 749.510,393.123 750.744 C 392.239 752.325,392.048 752.250,391.214 750.000 C 390.704 748.625,390.033 746.825,389.723 746.000 C 389.412 745.175,389.122 745.884,389.079 747.576 C 389.026 749.634,389.827 751.428,391.500 753.000 C 392.875 754.292,394.000 756.014,394.000 756.828 C 394.000 757.641,395.205 760.825,396.678 763.904 C 398.270 767.232,399.305 771.020,399.231 773.250 C 399.097 777.259,400.452 778.303,401.500 775.000 C 401.849 773.900,402.554 773.000,403.067 773.000 C 404.482 773.000,404.124 776.252,402.468 778.441 C 401.661 779.509,401.007 780.859,401.015 781.441 C 401.024 782.024,401.483 781.825,402.036 781.000 C 402.893 779.721,403.336 779.852,405.045 781.892 C 406.148 783.207,407.272 784.062,407.543 783.791 C 408.340 782.993,405.187 771.201,401.581 761.500 C 397.656 750.941,396.145 746.606,394.956 742.500 C 394.098 739.537,387.969 722.375,384.176 712.318 C 379.367 699.564,366.954 686.388,352.102 678.272 C 349.571 676.888,346.375 675.139,345.000 674.384 C 343.625 673.630,341.725 673.010,340.778 673.006 C 337.258 672.994,320.330 668.209,316.013 666.006 C 313.554 664.752,309.283 663.450,306.521 663.113 C 302.222 662.588,301.286 662.069,300.008 659.500 C 299.188 657.850,295.514 653.800,291.844 650.500 C 279.709 639.587,273.626 628.829,272.191 615.741 C 271.663 610.924,270.708 606.353,270.069 605.583 C 266.923 601.792,257.565 599.859,252.500 601.954 M554.627 617.860 C 553.288 619.339,553.154 620.274,553.972 622.425 C 555.473 626.375,555.187 633.240,553.073 644.000 C 552.046 649.225,551.424 653.725,551.689 654.000 C 551.955 654.275,553.023 653.375,554.063 652.000 C 558.510 646.119,559.554 645.040,560.500 645.344 C 561.050 645.522,561.500 646.265,561.500 646.997 C 561.500 648.573,565.517 650.853,572.708 653.357 C 578.533 655.386,579.351 655.156,581.571 650.864 C 583.761 646.629,583.197 644.548,574.944 626.386 C 573.915 624.123,571.467 620.861,569.502 619.136 C 566.558 616.551,565.085 616.000,561.120 616.000 C 557.701 616.000,555.823 616.538,554.627 617.860 M565.923 622.589 C 567.615 624.013,569.000 625.638,569.000 626.201 C 569.000 626.764,571.025 631.270,573.500 636.214 C 578.526 646.255,578.897 648.000,576.000 648.000 C 573.844 648.000,573.252 646.416,575.168 645.777 C 575.811 645.563,573.824 645.413,570.754 645.444 C 564.339 645.508,562.829 644.633,565.573 642.438 C 567.467 640.923,567.466 640.905,565.500 641.401 C 559.258 642.975,558.003 643.136,558.033 642.358 C 558.051 641.886,558.461 638.433,558.944 634.684 C 559.458 630.699,559.449 626.567,558.924 624.735 C 558.283 622.499,558.380 621.377,559.263 620.816 C 561.319 619.510,562.702 619.878,565.923 622.589 M542.882 629.750 C 542.816 630.163,542.821 630.850,542.891 631.278 C 542.961 631.706,542.339 632.316,541.509 632.635 C 540.521 633.014,540.000 634.558,540.000 637.107 C 540.000 641.480,538.373 642.336,537.404 638.474 C 537.055 637.084,535.922 635.493,534.885 634.938 C 533.848 634.384,533.000 633.008,533.000 631.881 C 533.000 628.678,530.652 630.242,529.707 634.075 C 527.885 641.466,527.703 643.301,528.866 642.583 C 529.490 642.197,530.000 640.784,530.000 639.441 C 530.000 634.119,535.675 638.220,536.653 644.249 C 537.002 646.399,536.774 648.021,536.062 648.462 C 535.192 648.999,535.211 649.549,536.137 650.665 C 537.120 651.850,537.105 652.317,536.064 652.961 C 535.345 653.405,534.950 654.350,535.187 655.061 C 535.900 657.200,540.000 649.551,540.000 646.082 C 540.000 644.332,540.622 641.686,541.382 640.200 C 542.902 637.230,544.523 629.000,543.588 629.000 C 543.265 629.000,542.947 629.337,542.882 629.750 M516.797 631.782 C 514.298 634.735,516.100 655.000,518.862 655.000 C 520.226 655.000,523.065 660.842,522.016 661.490 C 521.457 661.836,521.000 661.641,521.000 661.059 C 521.000 660.477,520.325 660.000,519.500 660.000 C 517.372 660.000,517.631 660.929,520.500 663.588 C 522.289 665.245,523.000 665.491,523.000 664.452 C 523.000 661.479,524.798 663.156,526.816 668.012 C 528.936 673.113,531.319 675.081,533.152 673.248 C 534.415 671.985,532.757 668.648,525.707 658.263 C 520.757 650.971,520.475 650.207,520.000 642.760 C 519.628 636.931,519.850 634.577,520.867 633.561 C 522.022 632.406,521.926 632.031,520.243 631.130 C 518.682 630.295,517.937 630.436,516.797 631.782 M304.654 633.000 C 304.386 633.825,303.937 637.079,303.657 640.232 C 303.369 643.480,302.172 647.700,300.896 649.971 C 298.567 654.114,298.842 656.206,301.432 654.056 C 303.249 652.549,305.151 653.555,304.777 655.825 C 304.624 656.746,305.150 657.500,305.944 657.500 C 307.922 657.500,308.346 635.849,306.419 633.233 C 305.333 631.758,305.070 631.724,304.654 633.000 M57.000 676.727 C 57.000 677.362,57.457 678.165,58.016 678.510 C 58.575 678.856,58.729 679.630,58.358 680.230 C 56.729 682.866,57.008 698.572,58.884 709.798 C 61.355 724.582,63.385 740.608,66.067 766.500 C 66.579 771.450,67.498 777.377,68.107 779.671 C 68.717 781.965,68.915 784.329,68.548 784.923 C 68.180 785.518,68.190 789.153,68.569 793.002 C 69.166 799.066,69.521 800.000,71.230 800.000 C 72.963 800.000,73.139 799.486,72.689 795.750 C 72.408 793.413,71.883 790.150,71.523 788.500 C 70.910 785.691,70.966 785.620,72.391 787.382 C 73.228 788.416,74.424 791.727,75.049 794.738 C 75.815 798.425,76.516 799.884,77.196 799.204 C 78.255 798.145,77.896 792.971,76.002 782.000 C 74.729 774.622,73.702 767.596,71.436 750.740 C 70.566 744.272,69.425 737.522,68.900 735.740 C 68.374 733.958,67.049 726.545,65.954 719.266 C 64.858 711.987,63.521 704.870,62.981 703.451 C 62.442 702.031,61.967 698.312,61.927 695.185 C 61.813 686.296,60.504 679.075,58.674 677.246 C 57.707 676.279,57.000 676.060,57.000 676.727 M37.488 684.632 C 37.154 686.209,36.737 688.238,36.562 689.140 C 35.808 693.038,43.684 735.000,45.170 735.000 C 46.467 735.000,46.062 728.917,44.471 724.500 C 43.679 722.300,43.023 718.644,43.015 716.376 C 43.007 714.107,42.281 710.282,41.402 707.876 C 40.385 705.092,39.748 699.802,39.651 693.333 C 39.497 683.027,38.597 679.408,37.488 684.632 M518.460 683.244 C 518.113 684.149,516.258 684.615,513.008 684.615 C 509.975 684.615,507.394 685.215,506.291 686.177 C 505.306 687.036,503.375 687.997,502.000 688.313 C 484.897 692.242,475.555 696.411,466.241 704.270 C 462.832 707.146,457.784 711.194,455.022 713.265 C 452.260 715.336,450.000 717.761,450.000 718.655 C 450.000 719.548,449.288 720.800,448.417 721.437 C 447.201 722.326,447.000 723.485,447.552 726.425 L 448.270 730.255 449.581 726.443 C 450.301 724.347,450.685 722.299,450.434 721.893 C 449.768 720.815,467.566 707.000,469.620 707.000 C 469.973 707.000,472.412 705.455,475.040 703.567 C 480.285 699.798,485.762 697.402,496.668 694.105 C 500.610 692.913,506.339 690.602,509.399 688.969 C 512.459 687.336,516.048 686.000,517.374 686.000 C 519.858 686.000,521.662 683.527,519.949 682.469 C 519.419 682.141,518.749 682.490,518.460 683.244 M331.710 692.660 C 330.846 694.059,332.890 703.403,334.301 704.500 C 336.118 705.913,339.838 713.387,340.915 717.787 C 341.415 719.829,342.308 722.850,342.900 724.500 C 344.190 728.097,351.764 750.857,353.549 756.500 C 354.244 758.700,355.788 763.650,356.980 767.500 C 359.597 775.955,360.901 779.114,366.059 789.500 C 368.244 793.900,370.025 798.063,370.016 798.750 C 370.007 799.438,370.637 800.000,371.417 800.000 C 373.690 800.000,373.859 797.773,371.886 793.838 C 368.631 787.349,365.335 777.731,363.098 768.194 C 361.897 763.076,360.296 757.451,359.541 755.694 C 358.785 753.937,357.454 750.857,356.583 748.849 C 355.713 746.841,354.991 744.366,354.980 743.349 C 354.962 741.607,351.836 732.417,347.039 720.000 C 345.871 716.975,344.513 712.700,344.022 710.500 C 341.726 700.214,338.000 693.372,338.000 699.441 C 338.000 703.606,336.286 703.187,335.127 698.738 C 333.851 693.840,332.484 691.408,331.710 692.660 M107.667 729.750 C 108.251 741.331,110.529 751.369,112.500 751.053 C 113.521 750.889,113.445 745.706,112.381 743.000 C 112.056 742.175,111.701 737.675,111.592 733.000 C 111.472 727.893,110.830 723.502,109.984 722.000 C 109.209 720.625,108.671 719.163,108.788 718.750 C 108.904 718.337,108.567 718.000,108.037 718.000 C 107.440 718.000,107.299 722.471,107.667 729.750 M17.000 754.592 C 17.000 754.918,17.900 756.329,19.000 757.727 C 20.100 759.126,21.000 761.784,21.000 763.635 C 21.000 767.388,22.682 768.256,23.180 764.760 C 23.356 763.528,24.288 762.370,25.250 762.187 C 26.585 761.932,26.996 762.523,26.985 764.677 C 26.965 768.291,25.951 769.786,23.750 769.447 C 22.782 769.298,22.000 769.808,22.000 770.588 C 22.000 771.365,22.876 772.000,23.947 772.000 C 25.018 772.000,28.909 774.282,32.594 777.071 C 37.482 780.771,39.506 781.800,40.077 780.875 C 41.264 778.955,39.306 776.157,35.714 774.636 C 30.587 772.466,28.633 769.649,29.319 765.420 C 30.046 760.939,26.937 755.942,23.913 756.733 C 22.757 757.035,21.784 756.601,21.405 755.613 C 20.835 754.129,17.000 753.240,17.000 754.592 M768.749 763.418 C 767.236 765.807,764.842 770.403,763.429 773.631 C 762.017 776.859,759.975 781.383,758.892 783.685 C 757.287 787.100,754.000 797.757,754.000 799.549 C 754.000 799.797,754.855 800.000,755.899 800.000 C 758.172 800.000,761.998 793.243,762.004 789.219 C 762.007 787.724,763.172 783.350,764.593 779.500 C 766.014 775.650,767.415 771.251,767.706 769.725 C 767.997 768.198,769.050 766.378,770.047 765.680 C 771.958 764.341,773.826 758.974,772.358 759.037 C 771.886 759.057,770.262 761.028,768.749 763.418 M13.404 769.612 C 13.745 770.498,16.082 774.292,18.598 778.042 C 22.158 783.348,24.208 785.342,27.836 787.029 C 30.401 788.221,33.499 790.118,34.721 791.245 C 36.563 792.945,37.204 793.076,38.483 792.014 C 40.449 790.383,39.268 788.875,34.250 786.613 C 32.181 785.680,29.728 783.591,28.798 781.970 C 27.867 780.349,24.952 777.657,22.318 775.987 C 19.685 774.317,16.946 771.836,16.233 770.475 C 14.809 767.757,12.412 767.026,13.404 769.612 " stroke="none" fill="#000000" fill-rule="evenodd"/></svg>